<?xml version="1.0" encoding="UTF-8" standalone="no"?>
<!-- Created with Inkscape (http://www.inkscape.org/) -->

<svg
   xmlns:dc="http://purl.org/dc/elements/1.1/"
   xmlns:cc="http://creativecommons.org/ns#"
   xmlns:rdf="http://www.w3.org/1999/02/22-rdf-syntax-ns#"
   xmlns:svg="http://www.w3.org/2000/svg"
   xmlns="http://www.w3.org/2000/svg"
   xmlns:sodipodi="http://sodipodi.sourceforge.net/DTD/sodipodi-0.dtd"
   xmlns:inkscape="http://www.inkscape.org/namespaces/inkscape"
   width="210mm"
   height="297mm"
   viewBox="0 0 744.09448819 1052.3622047"
   id="svg2"
   version="1.1"
   inkscape:version="0.91 r13725"
   inkscape:export-filename="/var/www/html/PROJET_INFO/Projet-2eme-semestre-CIR-2-/Images/boutons/bouton_start_choice.png"
   inkscape:export-xdpi="636.49432"
   inkscape:export-ydpi="636.49432"
   sodipodi:docname="boutons.svg">
  <defs
     id="defs4" />
  <sodipodi:namedview
     id="base"
     pagecolor="#ffffff"
     bordercolor="#666666"
     borderopacity="1.0"
     inkscape:pageopacity="0.0"
     inkscape:pageshadow="2"
     inkscape:zoom="5.6"
     inkscape:cx="395.9375"
     inkscape:cy="794.08815"
     inkscape:document-units="px"
     inkscape:current-layer="layer17"
     showgrid="false"
     inkscape:window-width="1315"
     inkscape:window-height="744"
     inkscape:window-x="51"
     inkscape:window-y="24"
     inkscape:window-maximized="1" />
  <metadata
     id="metadata7">
    <rdf:RDF>
      <cc:Work
         rdf:about="">
        <dc:format>image/svg+xml</dc:format>
        <dc:type
           rdf:resource="http://purl.org/dc/dcmitype/StillImage" />
        <dc:title />
      </cc:Work>
    </rdf:RDF>
  </metadata>
  <g
     inkscape:label="Contour"
     inkscape:groupmode="layer"
     id="layer1"
     sodipodi:insensitive="true"
     style="display:inline">
    <path
       style="fill:#ffffff;fill-opacity:1;fill-rule:evenodd;stroke:#000000;stroke-width:1.39999998;stroke-linecap:butt;stroke-linejoin:miter;stroke-miterlimit:4;stroke-dasharray:none;stroke-opacity:1"
       d="m 417.78795,240.44226 c 13.72814,4.202 15.88859,18.50903 10.32883,26.73578 -22.17509,17.22359 -56.278,14.31262 -62.1052,5.05293 -2.97127,-4.7215 -5.10782,-8.94391 -4.08815,-13.23696 1.55642,-6.5529 4.61885,-12.0406 12.61005,-14.7766 16.26353,-3.93967 27.27553,-6.61521 43.25447,-3.77515 z"
       id="path4165"
       inkscape:connector-curvature="0"
       sodipodi:nodetypes="ccsscc" />
  </g>
  <g
     inkscape:groupmode="layer"
     id="layer3"
     inkscape:label="BETRAY"
     sodipodi:insensitive="true"
     style="display:none">
    <text
       xml:space="preserve"
       style="font-style:normal;font-weight:normal;font-size:28.37595177px;line-height:125%;font-family:sans-serif;letter-spacing:0px;word-spacing:0px;fill:#000000;fill-opacity:1;stroke:none;stroke-width:1px;stroke-linecap:butt;stroke-linejoin:miter;stroke-opacity:1"
       x="321.47153"
       y="322.78973"
       id="text4179"
       sodipodi:linespacing="125%"
       transform="matrix(1.0136479,-0.13475246,0.12887077,0.96940404,0,0)"><tspan
         sodipodi:role="line"
         id="tspan4181"
         x="321.47153"
         y="322.78973"
         style="font-style:normal;font-variant:normal;font-weight:normal;font-stretch:normal;font-family:'Just Me Again Down Here';-inkscape-font-specification:'Just Me Again Down Here';fill:#e54a3b;fill-opacity:1">BETRAY</tspan></text>
  </g>
  <g
     inkscape:groupmode="layer"
     id="layer4"
     inkscape:label="ARCADE"
     style="display:none"
     sodipodi:insensitive="true">
    <text
       xml:space="preserve"
       style="font-style:normal;font-weight:normal;font-size:56.27636337px;line-height:125%;font-family:sans-serif;letter-spacing:0px;word-spacing:0px;fill:#000000;fill-opacity:1;stroke:none;stroke-width:1px;stroke-linecap:butt;stroke-linejoin:miter;stroke-opacity:1"
       x="355.83841"
       y="290.92233"
       id="text4250"
       sodipodi:linespacing="125%"
       transform="matrix(0.93124395,-0.11187098,0.12716507,1.0585561,0,0)"><tspan
         sodipodi:role="line"
         id="tspan4252"
         x="355.83841"
         y="290.92233"
         style="font-style:normal;font-variant:normal;font-weight:normal;font-stretch:normal;font-size:28.13818169px;font-family:'Just Me Again Down Here';-inkscape-font-specification:'Just Me Again Down Here'">ARCADE</tspan></text>
  </g>
  <g
     inkscape:groupmode="layer"
     id="layer5"
     inkscape:label="HISTORY"
     style="display:none"
     sodipodi:insensitive="true">
    <text
       xml:space="preserve"
       style="font-style:normal;font-weight:normal;font-size:37.164505px;line-height:125%;font-family:sans-serif;letter-spacing:0px;word-spacing:0px;fill:#000000;fill-opacity:1;stroke:none;stroke-width:1px;stroke-linecap:butt;stroke-linejoin:miter;stroke-opacity:1"
       x="354.78244"
       y="297.26276"
       id="text4255"
       sodipodi:linespacing="125%"
       transform="matrix(0.94436649,-0.11580987,0.10454833,1.0460899,0,0)"><tspan
         sodipodi:role="line"
         id="tspan4257"
         x="354.78244"
         y="297.26276"
         style="font-style:normal;font-variant:normal;font-weight:normal;font-stretch:normal;font-size:29.03477097px;font-family:'Just Me Again Down Here';-inkscape-font-specification:'Just Me Again Down Here'">HISTORY</tspan></text>
  </g>
  <g
     inkscape:groupmode="layer"
     id="layer6"
     inkscape:label="SELECT"
     style="display:none"
     sodipodi:insensitive="true">
    <text
       xml:space="preserve"
       style="font-style:normal;font-weight:normal;font-size:40px;line-height:125%;font-family:sans-serif;letter-spacing:0px;word-spacing:0px;fill:#000000;fill-opacity:1;stroke:none;stroke-width:1px;stroke-linecap:butt;stroke-linejoin:miter;stroke-opacity:1"
       x="333.89899"
       y="307.17337"
       id="text4260"
       sodipodi:linespacing="125%"
       transform="matrix(0.99418421,-0.1076929,0.1076929,0.99418421,0,0)"><tspan
         sodipodi:role="line"
         id="tspan4262"
         x="333.89899"
         y="307.17337"
         style="font-style:normal;font-variant:normal;font-weight:normal;font-stretch:normal;font-size:31.25px;font-family:'Just Me Again Down Here';-inkscape-font-specification:'Just Me Again Down Here'">SELECT</tspan></text>
  </g>
  <g
     inkscape:groupmode="layer"
     id="layer7"
     inkscape:label="BETRAY_OVER"
     sodipodi:insensitive="true"
     style="display:none">
    <path
       style="fill:#fbebeb;fill-opacity:1;stroke:none;stroke-width:1.39999998;stroke-miterlimit:4;stroke-dasharray:none;stroke-opacity:1"
       d="m 386.49636,278.79698 c -7.22393,-0.39627 -13.51107,-2.01923 -17.12223,-4.41992 -1.62977,-1.08347 -2.24556,-1.79917 -3.7821,-4.39578 -3.03381,-5.12684 -3.70844,-8.26797 -2.58726,-12.04651 1.77374,-5.9778 4.38933,-9.39581 8.99131,-11.74971 2.01435,-1.03033 2.42482,-1.1557 8.25028,-2.51984 15.63281,-3.66071 23.64623,-4.35252 34.16307,-2.94935 4.19095,0.55917 6.76403,1.59843 9.60228,3.87833 3.9739,3.19214 6.08258,7.64521 6.10584,12.89414 0.013,2.93984 -0.63657,5.66422 -1.89472,7.94643 -0.68171,1.23658 -1.87061,2.22009 -5.09749,4.21687 -6.15464,3.80845 -13.86088,6.71242 -21.45041,8.08322 -5.03007,0.90853 -10.7201,1.30668 -15.17857,1.06212 z m -15.35804,-9.87961 c 0.98667,-0.50336 2.53347,-2.14876 3.1319,-3.33153 0.90821,-1.79505 0.54094,-4.20822 -0.74523,-4.89656 -0.48165,-0.25777 -1.40218,-0.3129 -1.94847,-0.11669 -0.36316,0.13044 -0.36413,0.11873 -0.11487,-1.38828 0.27689,-1.67403 0.22451,-2.12079 -0.33152,-2.82767 -0.2594,-0.32978 -0.54136,-0.47544 -0.9203,-0.47544 -0.63007,0 -1.65854,0.57822 -1.83276,1.0304 -0.11248,0.29191 -0.12866,0.29171 -0.29445,-0.004 -0.21394,-0.38108 -0.92643,-0.40936 -1.22578,-0.0487 -0.23691,0.28546 -0.23685,0.28643 0.37164,6.40635 0.26695,2.68488 0.30272,3.60516 0.14739,3.79233 -0.31472,0.37921 -0.0564,1.04644 0.64297,1.66045 0.52786,0.46347 0.78102,0.55561 1.52656,0.55561 0.54098,0 1.16973,-0.14079 1.59292,-0.35669 z m 21.06831,-0.7992 c 0.12007,-0.14466 0.21815,-0.52636 0.21797,-0.84821 -7.2e-4,-1.20473 -1.24672,-9.0469 -1.84694,-11.62403 -0.2017,-0.866 -0.33866,-1.5972 -0.30437,-1.62489 0.0343,-0.0277 1.06682,-0.23275 2.29449,-0.45571 2.65711,-0.48255 3.39286,-0.7481 3.39286,-1.22458 0,-0.81798 -0.31066,-0.81581 -4.58957,0.0321 -4.71928,0.93515 -6.25411,1.37551 -7.0094,2.01104 -1.04027,0.87533 -0.35972,1.79807 0.81497,1.10498 0.58369,-0.34439 2.78566,-1.03622 3.29808,-1.03622 0.32178,0 0.79261,1.83703 1.39592,5.44643 0.29379,1.75765 1.09,7.47376 1.09,7.82529 0,0.18887 0.56602,0.65685 0.79446,0.65685 0.12828,0 0.33147,-0.11836 0.45153,-0.26303 z m -9.69406,-0.54069 c 0.52857,-0.15697 1.22635,-0.55807 1.6842,-0.96812 0.66155,-0.59249 0.75133,-0.75032 0.58402,-1.02664 -0.31113,-0.51383 -0.72839,-0.48659 -1.62299,0.10598 -1.41331,0.93613 -3.1371,0.58908 -3.71778,-0.74852 -0.23866,-0.54976 -0.22771,-0.59589 0.23332,-0.98264 0.26605,-0.22319 0.98596,-0.70194 1.5998,-1.06389 0.82779,-0.4881 1.11607,-0.75888 1.11607,-1.0483 0,-0.384 -0.30595,-0.60701 -0.83277,-0.60701 -0.14731,0 -0.75346,0.28461 -1.34698,0.63247 -0.59352,0.34785 -1.12309,0.5885 -1.17681,0.53478 -0.15422,-0.15422 0.29572,-2.33669 0.71,-3.44395 0.26627,-0.71166 0.68283,-1.31175 1.42227,-2.0489 0.57515,-0.57337 1.04572,-1.11464 1.04572,-1.20283 0,-0.16674 -0.4972,-0.72157 -0.64662,-0.72157 -0.54291,0 -2.04346,1.38679 -2.70509,2.5 -0.74568,1.25464 -1.29115,3.27681 -1.29115,4.78661 0,1.57029 0.0979,1.44542 -1.51612,1.9341 -0.59268,0.17945 -0.77853,0.64908 -0.42529,1.07471 0.23078,0.27807 1.26979,0.26734 1.96887,-0.0203 0.21709,-0.0893 0.44188,0.0915 0.84863,0.68269 0.6399,0.93006 1.29235,1.43901 2.16615,1.68972 0.85293,0.24471 0.88539,0.24372 1.90255,-0.0584 z m 15.24553,-1.70256 c 0.47536,-0.25441 0.44737,-1.08759 -0.0938,-2.79176 -0.24156,-0.76069 -0.40729,-1.41499 -0.36827,-1.454 0.0926,-0.0926 0.69004,0.2155 2.86105,1.47546 3.29824,1.91415 5.51263,2.52169 6.05233,1.66051 0.32717,-0.52206 -0.0828,-0.92301 -1.07136,-1.04782 -0.48061,-0.0607 -1.41859,-0.35805 -2.08441,-0.66081 -1.15728,-0.52626 -4.23585,-2.30375 -4.23585,-2.44569 0,-0.0373 0.40015,-0.59651 0.88923,-1.24266 1.54354,-2.03931 1.80804,-4.09309 0.69097,-5.36536 -0.58331,-0.66435 -1.92192,-1.08894 -2.81483,-0.89282 -0.60363,0.13258 -1.43197,0.98726 -1.7866,1.84343 -0.18504,0.44671 -0.34333,0.57066 -0.72877,0.57066 -1.08142,0 -1.12672,2.12403 -0.0992,4.65269 0.23999,0.5906 0.61092,1.7742 0.82431,2.63021 0.39991,1.60427 0.7236,2.39794 1.19915,2.94031 0.32171,0.36692 0.31965,0.36658 0.7661,0.12765 z m 25.7191,-1.48068 c 0.61478,-0.3246 0.90425,-0.64432 1.32273,-1.46095 0.52941,-1.03313 0.53558,-1.0781 0.52479,-3.82554 -0.008,-2.11176 -0.14626,-3.73691 -0.5739,-6.75995 -0.30964,-2.1889 -0.61081,-4.05721 -0.66927,-4.15178 -0.1564,-0.25307 -1.15298,-0.20971 -1.17814,0.0512 -0.0118,0.12277 -0.0355,1.58929 -0.0525,3.25893 -0.0313,3.06913 -0.17274,3.89357 -0.79038,4.60688 -0.18053,0.2085 -0.46922,0.30246 -0.82293,0.26786 -0.89145,-0.0872 -1.22952,-1.02134 -1.31186,-3.62474 -0.0373,-1.17857 0.0152,-2.50296 0.11671,-2.94309 0.15281,-0.66286 0.13542,-0.85444 -0.10135,-1.11607 -0.47169,-0.52121 -0.93189,-0.39021 -1.24296,0.3538 -0.38941,0.9314 -0.37787,5.00616 0.018,6.36801 0.70382,2.42107 2.85171,3.16958 4.40618,1.53549 l 0.64711,-0.68025 0.11217,1.18748 c 0.28601,3.02787 0.03,4.76582 -0.80575,5.46903 -0.77982,0.65617 -1.69096,0.60037 -3.41612,-0.2092 -1.4919,-0.70011 -1.94309,-0.68362 -2.05682,0.0752 -0.0401,0.26772 0.16242,0.48793 0.78364,0.85199 2.04826,1.20036 3.75574,1.45048 5.0906,0.74569 z m -15.24626,-0.63714 c 0.22416,-0.33343 0.62871,-1.19454 0.89899,-1.91358 0.47957,-1.27582 0.51512,-1.31782 1.47357,-1.74137 1.77771,-0.78559 1.56078,-0.90931 2.85815,1.63013 0.99759,1.95264 1.22191,2.27392 1.58768,2.27392 0.90288,0 0.8675,-0.45671 -0.21468,-2.77145 -0.55928,-1.19626 -1.01687,-2.27273 -1.01687,-2.39216 0,-0.11943 0.48376,-0.44837 1.07502,-0.73096 1.27852,-0.61108 1.67784,-1.00077 1.52357,-1.48685 -0.18987,-0.59824 -0.60332,-0.5851 -1.88405,0.0599 -0.67763,0.34125 -1.26643,0.56123 -1.30845,0.48886 -0.042,-0.0724 -0.36853,-1.21642 -0.7256,-2.54231 -0.35707,-1.32589 -0.7314,-2.71074 -0.83186,-3.07744 -0.23366,-0.85297 -0.719,-1.14211 -1.19952,-0.71461 -0.26131,0.23247 -0.44575,0.88993 -0.73821,2.63134 -0.21443,1.27678 -0.57169,3.07437 -0.79391,3.99463 -0.45345,1.87778 -0.75101,2.25036 -1.66264,2.08183 -0.46251,-0.0855 -0.62877,-0.0212 -0.92753,0.35857 -0.59928,0.76187 -0.0314,1.43194 1.0332,1.21903 0.61979,-0.12395 0.61584,0.0209 -0.0306,1.12352 -0.48157,0.82136 -0.65801,1.56013 -0.45799,1.91756 0.26038,0.46527 0.88142,0.27617 1.34174,-0.40853 z"
       id="path4214"
       inkscape:connector-curvature="0" />
    <path
       style="fill:#fbebeb;fill-opacity:1;stroke:none;stroke-width:1.39999998;stroke-miterlimit:4;stroke-dasharray:none;stroke-opacity:1"
       d="m 369.29353,267.26513 c -0.0548,-0.3192 -0.15341,-1.04241 -0.21902,-1.60714 -0.11152,-0.95977 -0.095,-1.02679 0.25293,-1.02679 0.25301,0 0.56639,-0.30027 0.97846,-0.9375 0.82542,-1.27647 1.39081,-1.7605 2.07927,-1.78007 0.76398,-0.0217 0.92365,0.27499 0.85255,1.58433 -0.0481,0.8865 -0.18373,1.30069 -0.70148,2.14286 -0.7556,1.22905 -1.92432,2.20467 -2.64104,2.20467 -0.42681,0 -0.51688,-0.0869 -0.60167,-0.58036 z"
       id="path4216"
       inkscape:connector-curvature="0" />
    <path
       style="fill:#fbebeb;fill-opacity:1;stroke:none;stroke-width:1.39999998;stroke-miterlimit:4;stroke-dasharray:none;stroke-opacity:1"
       d="m 368.82614,262.18876 c -0.0206,-1.83927 0.6538,-4.87899 1.08246,-4.87899 0.44915,0 0.008,2.85556 -0.73564,4.75851 l -0.33847,0.86649 -0.008,-0.74601 z"
       id="path4218"
       inkscape:connector-curvature="0" />
    <path
       style="fill:#fbebeb;fill-opacity:1;stroke:none;stroke-width:1.39999998;stroke-miterlimit:4;stroke-dasharray:none;stroke-opacity:1"
       d="m 396.87933,257.67996 c 0.0543,-1.82319 0.11741,-2.20238 0.43825,-2.63393 0.46024,-0.61903 1.27278,-0.74785 1.82866,-0.28991 1.01437,0.83564 -0.0234,3.98167 -1.57882,4.78598 -0.28469,0.14722 -0.57025,0.26767 -0.63458,0.26767 -0.0643,0 -0.0884,-0.95841 -0.0535,-2.12981 z"
       id="path4220"
       inkscape:connector-curvature="0" />
    <path
       style="fill:#fbebeb;fill-opacity:1;stroke:none;stroke-width:1.39999998;stroke-miterlimit:4;stroke-dasharray:none;stroke-opacity:1"
       d="m 410.3348,258.32852 c 0.0502,-0.21656 0.21367,-0.9919 0.36334,-1.72297 0.14968,-0.73107 0.30004,-1.35712 0.33413,-1.39122 0.0341,-0.0341 0.23151,0.5616 0.43869,1.32376 0.41731,1.5352 0.44964,1.44863 -0.73492,1.96818 -0.46175,0.20253 -0.48677,0.19145 -0.40124,-0.17775 z"
       id="path4222"
       inkscape:connector-curvature="0" />
  </g>
  <g
     inkscape:groupmode="layer"
     id="layer8"
     inkscape:label="COOP_OVER"
     sodipodi:insensitive="true"
     style="display:none">
    <path
       style="fill:#ebf7fb;fill-opacity:1;stroke:none;stroke-width:1.39999998;stroke-miterlimit:4;stroke-dasharray:none;stroke-opacity:1"
       d="m 386.49636,278.79698 c -7.22393,-0.39627 -13.51107,-2.01923 -17.12224,-4.41992 -1.62976,-1.08347 -2.24555,-1.79917 -3.78209,-4.39578 -3.03381,-5.12684 -3.70844,-8.26797 -2.58726,-12.04651 1.77374,-5.9778 4.38933,-9.39581 8.99131,-11.74971 2.01435,-1.03033 2.42482,-1.1557 8.25028,-2.51984 15.63281,-3.66071 23.64623,-4.35252 34.16307,-2.94935 4.19095,0.55917 6.76403,1.59843 9.60228,3.87833 3.9739,3.19214 6.08258,7.64521 6.10583,12.89414 0.013,2.93984 -0.63656,5.66422 -1.89471,7.94643 -0.68171,1.23658 -1.87061,2.22009 -5.09749,4.21687 -6.15465,3.80845 -13.86088,6.71242 -21.45041,8.08322 -5.03007,0.90853 -10.7201,1.30668 -15.17857,1.06212 z m 31.61038,-12.47325 c 0.3523,-0.4245 0.10434,-3.7609 -0.43678,-5.87695 -0.24947,-0.97553 -0.42893,-1.79835 -0.3988,-1.82847 0.0301,-0.0301 0.39571,-0.23643 0.81241,-0.45844 1.65399,-0.88123 3.39874,-2.6925 3.87257,-4.02018 0.4065,-1.13902 0.32357,-2.57117 -0.19296,-3.33231 -0.64705,-0.95347 -1.29577,-1.47204 -2.40968,-1.9262 -0.84235,-0.34344 -1.31256,-0.40074 -3.30357,-0.40252 -2.8893,-0.003 -4.53109,0.42838 -5.66647,1.48746 -0.61248,0.57131 -0.73166,0.80328 -0.80503,1.56683 -0.14377,1.49626 0.63652,2.46613 1.70997,2.12543 0.50726,-0.161 0.60451,-0.57584 0.28145,-1.20058 -0.15462,-0.299 -0.23472,-0.72856 -0.17799,-0.95457 0.24346,-0.97001 3.45317,-1.71549 5.81104,-1.34965 2.96123,0.45945 3.86458,1.83027 2.69671,4.09222 -0.60681,1.1753 -2.53217,2.69516 -3.1257,2.4674 -0.26238,-0.10068 -0.99184,-2.85522 -0.99184,-3.74532 0,-0.86754 -0.33187,-1.69745 -0.72921,-1.82356 -0.53727,-0.17052 -1.04524,0.0763 -1.16859,0.56773 -0.0957,0.38129 0.39615,3.51929 0.75933,4.84447 0.10554,0.3851 0.0737,0.40157 -0.58029,0.30002 -0.90719,-0.14086 -1.41731,0.20766 -1.25434,0.85698 0.11391,0.45383 0.83466,0.82984 2.11228,1.10196 0.402,0.0856 0.52656,0.26599 0.77929,1.12846 0.46615,1.59071 0.78274,3.58111 0.78959,4.96405 0.004,0.73293 0.0958,1.34846 0.22051,1.47321 0.30089,0.30088 1.12691,0.26688 1.3961,-0.0575 z m -23.67863,-1.14775 c 2.43156,-1.50278 2.74363,-5.05191 0.79565,-9.04876 -0.54347,-1.11508 -1.00774,-1.74212 -2.00817,-2.71218 -0.71722,-0.69545 -1.53532,-1.31998 -1.82275,-1.39147 -0.28682,-0.0713 -0.73769,-0.28877 -1.00193,-0.48319 -0.3833,-0.28201 -0.64521,-0.33091 -1.29522,-0.24182 -1.61915,0.22193 -2.79948,1.12799 -3.52726,2.70764 -0.35748,0.77591 -0.4111,1.17354 -0.40934,3.03571 0.002,1.62457 0.0831,2.38041 0.33735,3.125 1.14573,3.35568 3.06383,5.40335 5.33574,5.6962 1.15119,0.14839 2.73315,-0.1539 3.59593,-0.68713 z m 12.49832,0.0993 c 1.55718,-0.91257 2.15921,-2.16261 2.15921,-4.48332 0,-2.791 -1.14975,-5.42639 -3.22911,-7.40158 -0.7239,-0.68763 -1.53903,-1.30565 -1.8114,-1.37336 -0.27236,-0.0677 -0.7114,-0.28217 -0.97565,-0.47659 -0.3833,-0.28201 -0.64521,-0.33091 -1.29522,-0.24182 -1.57811,0.21631 -2.95488,1.27051 -3.60313,2.75893 -0.44148,1.01365 -0.53645,3.96571 -0.17361,5.39627 0.70041,2.76147 2.34345,5.15908 4.12384,6.01769 0.78672,0.37941 1.07737,0.42148 2.44505,0.3539 1.27041,-0.0628 1.69885,-0.16265 2.36002,-0.55012 z m -29.69971,-0.0925 c 1.36558,-0.35224 2.74343,-0.94923 4.8752,-2.1123 1.44821,-0.79013 2.0648,-1.63967 1.64807,-2.27073 -0.42098,-0.63749 -0.88518,-0.52287 -2.45248,0.60559 -0.82367,0.59304 -2.10026,1.33366 -2.83687,1.64583 -2.61922,1.11001 -5.36444,0.84831 -6.24457,-0.59528 -0.56291,-0.92329 -0.5127,-3.57989 0.10468,-5.53865 0.74411,-2.36083 1.50939,-3.64269 1.926,-3.22608 0.0587,0.0587 0.10675,0.81374 0.10675,1.67785 0,1.41949 0.0366,1.5907 0.37973,1.77432 0.91235,0.48827 1.76313,-0.63774 1.76313,-2.33352 0,-1.71219 -0.91438,-2.85492 -2.28566,-2.85647 -1.27758,-0.001 -2.11425,0.81187 -3.13535,3.04784 -0.84903,1.85916 -1.09452,3.01759 -1.07579,5.07649 0.014,1.54422 0.078,1.90646 0.47271,2.67857 1.23659,2.41873 3.55534,3.25174 6.75445,2.42654 z"
       id="path4225"
       inkscape:connector-curvature="0" />
    <path
       style="fill:#ebf7fb;fill-opacity:1;stroke:none;stroke-width:1.39999998;stroke-miterlimit:4;stroke-dasharray:none;stroke-opacity:1"
       d="m 403.34587,264.08962 c -0.91501,-0.28205 -2.31532,-1.68141 -2.90953,-2.90756 -1.2931,-2.66834 -1.14214,-7.26515 0.23858,-7.26515 0.23066,0 0.74271,-0.11407 1.13789,-0.2535 1.19551,-0.4218 2.0267,-0.0978 3.12083,1.21645 0.49938,0.59984 1.18606,1.67601 1.52597,2.39148 0.51511,1.08426 0.63251,1.55996 0.70514,2.85714 0.15486,2.76608 -0.50007,3.92438 -2.29619,4.06099 -0.52882,0.0402 -1.21403,-0.005 -1.52269,-0.0998 z"
       id="path4227"
       inkscape:connector-curvature="0" />
    <path
       style="fill:#ebf7fb;fill-opacity:1;stroke:none;stroke-width:1.39999998;stroke-miterlimit:4;stroke-dasharray:none;stroke-opacity:1"
       d="m 390.62553,264.07879 c -0.85322,-0.26009 -2.45397,-1.92783 -2.96968,-3.09394 -1.24313,-2.81093 -0.95213,-7.27285 0.46337,-7.10503 0.24212,0.0287 0.72509,-0.0668 1.07327,-0.2123 0.50353,-0.21039 0.78932,-0.22484 1.39686,-0.0706 0.62136,0.15772 0.94522,0.4138 1.7364,1.37299 1.60933,1.95106 2.19403,3.51038 2.20195,5.87241 0.007,2.21747 -0.69502,3.2224 -2.33991,3.34741 -0.52761,0.0401 -1.23063,-0.01 -1.56226,-0.11091 z"
       id="path4229"
       inkscape:connector-curvature="0" />
  </g>
  <g
     inkscape:groupmode="layer"
     id="layer9"
     inkscape:label="SELECT_OVER"
     sodipodi:insensitive="true"
     style="display:none">
    <path
       style="fill:#efefef;fill-opacity:1;stroke:none;stroke-width:1.39999998;stroke-miterlimit:4;stroke-dasharray:none;stroke-opacity:1"
       d="m 386.49636,278.79698 c -7.22393,-0.39627 -13.51107,-2.01923 -17.12224,-4.41992 -1.62976,-1.08347 -2.24555,-1.79917 -3.78209,-4.39578 -3.03381,-5.12684 -3.70844,-8.26797 -2.58726,-12.04651 1.77374,-5.9778 4.38933,-9.39581 8.99131,-11.74971 2.01435,-1.03033 2.42482,-1.1557 8.25028,-2.51984 15.63281,-3.66071 23.64623,-4.35252 34.16307,-2.94935 2.87515,0.38361 4.57084,0.86446 6.53291,1.85254 2.16644,1.091 5.78609,4.07826 5.18257,4.27711 -0.13945,0.046 -1.53927,0.29195 -3.1107,0.54666 -6.01069,0.97427 -8.18362,1.80538 -7.88026,3.01406 0.14709,0.58605 0.75655,0.71592 1.33981,0.28551 0.25796,-0.19036 1.23242,-0.53983 2.16545,-0.77659 l 1.69643,-0.43048 0.21742,0.92148 c 0.44226,1.87436 0.96051,5.33102 1.47503,9.83814 0.3677,3.221 0.60729,4.7096 0.78692,4.88923 0.37739,0.37739 1.11652,0.13739 1.25313,-0.40689 0.18022,-0.71804 -0.99295,-10.06508 -1.68611,-13.43394 -0.19248,-0.93545 -0.34996,-1.80034 -0.34996,-1.92199 0,-0.18143 2.66439,-0.72147 5.16156,-1.04618 0.5492,-0.0714 2.11229,3.32915 2.61161,5.68167 0.36261,1.70844 0.41466,5.0803 0.10199,6.60714 -0.33804,1.65078 -1.03282,3.63949 -1.6844,4.82143 -0.68171,1.23658 -1.87061,2.22009 -5.09749,4.21687 -6.15465,3.80845 -13.86088,6.71242 -21.45041,8.08322 -5.03007,0.90853 -10.7201,1.30668 -15.17857,1.06212 z M 370.303,269.6283 c 2.74495,-0.84783 5.26934,-3.80113 4.83803,-5.66005 -0.20209,-0.87097 -0.96412,-2.00931 -1.64562,-2.45823 -0.95345,-0.62807 -1.87006,-0.71247 -3.94804,-0.36353 -1.67201,0.28077 -1.84611,0.28196 -2.25295,0.0154 -0.94572,-0.61965 -0.40588,-2.30339 1.21197,-3.78009 1.04189,-0.95098 1.74707,-1.3554 2.98997,-1.7147 0.65754,-0.19008 0.81332,-0.3162 0.85724,-0.69401 0.19255,-1.6565 -2.82677,-0.76907 -5.14015,1.51077 -1.299,1.28017 -1.96709,2.53904 -1.96709,3.70652 0,2.31604 1.22107,3.0081 4.55202,2.57993 2.61283,-0.33586 3.66226,0.0745 3.66226,1.43215 0,0.941 -0.45379,1.74663 -1.54623,2.74506 -1.02315,0.9351 -1.79905,1.25251 -3.06572,1.25414 -0.97107,10e-4 -1.69739,-0.65719 -1.98681,-1.80114 -0.35009,-1.38374 -0.48852,-1.59072 -1.06395,-1.59072 -1.77899,0 0.1235,4.4914 2.08563,4.92376 0.26829,0.0591 0.56815,0.13429 0.66637,0.16705 0.35904,0.11977 0.60989,0.0808 1.75307,-0.27228 z m 12.91459,-2.16483 c 0.5438,-0.13693 1.1097,-0.48292 1.73086,-1.05823 0.78373,-0.72588 0.89323,-0.9039 0.7261,-1.18048 -0.31722,-0.52496 -0.82576,-0.47212 -1.94548,0.20214 -0.57804,0.34808 -1.13608,0.63242 -1.24007,0.63188 -1.0538,-0.006 -2.46001,-1.0497 -2.69422,-2.00052 -0.10934,-0.44388 -0.0259,-0.5422 1.01443,-1.19548 2.70244,-1.69699 2.72846,-1.72598 2.10658,-2.34786 -0.43393,-0.43393 -0.68799,-0.37759 -2.14304,0.47519 -0.56811,0.33296 -1.09073,0.60538 -1.16138,0.60538 -0.0707,0 -0.0774,-0.43409 -0.0151,-0.96464 0.2646,-2.2513 1.39099,-4.66176 2.54929,-5.45544 0.79896,-0.54746 1.02873,-0.97113 0.77937,-1.43707 -0.28247,-0.52779 -0.91528,-0.43715 -1.83132,0.26229 -1.77211,1.35311 -3.16014,4.6612 -3.16604,7.54563 -0.003,1.24686 -0.0203,1.29918 -0.52949,1.5625 -0.28976,0.14984 -0.71566,0.27244 -0.94643,0.27244 -0.90269,0 -1.19855,1.09801 -0.39457,1.46433 0.34991,0.15942 0.66428,0.15267 1.37535,-0.0296 0.62625,-0.1605 0.94184,-0.17599 0.9844,-0.0483 0.16433,0.49299 1.17921,1.82993 1.61201,2.12356 1.11532,0.7567 1.89832,0.89722 3.18875,0.57229 z m 7.20734,-0.68518 c 2.54719,-0.14441 3.60283,-0.66847 3.29571,-1.63612 -0.14033,-0.44215 -0.84093,-0.59834 -1.35944,-0.30305 -0.23606,0.13443 -1.2163,0.27725 -2.24912,0.32768 l -1.83071,0.0894 -0.009,-2.32143 c -0.0157,-4.15868 -0.40416,-7.431 -0.97251,-8.19129 -0.28648,-0.38322 -1.0544,-0.29024 -1.22258,0.14804 -0.0556,0.14487 0.0114,0.92905 0.1488,1.74262 0.13744,0.81356 0.33827,3.40777 0.44628,5.76492 0.18053,3.93971 0.22538,4.31029 0.55552,4.59009 0.29605,0.2509 0.44371,0.26845 0.84047,0.0999 0.26473,-0.11246 1.32507,-0.2523 2.35632,-0.31077 l 0,0 z m 11.08135,-1.34702 c 1.52694,-0.53874 2.62419,-1.72599 2.13732,-2.31264 -0.33782,-0.40705 -0.79979,-0.33398 -1.65095,0.26113 -1.06945,0.74773 -1.66629,0.82101 -2.6287,0.32276 -0.79575,-0.41197 -1.32469,-0.99454 -1.50774,-1.66061 -0.10639,-0.38714 0.69132,-1.04143 2.52407,-2.07024 0.53991,-0.30307 0.9375,-0.6513 0.9375,-0.82109 0,-0.34555 -0.50262,-0.94795 -0.79092,-0.94795 -0.10993,0 -0.82069,0.35379 -1.57947,0.7862 -1.5801,0.90046 -1.54862,0.93397 -1.10498,-1.17631 0.42987,-2.04482 1.23372,-3.60502 2.34777,-4.55678 0.95003,-0.81163 1.13615,-1.22314 0.73475,-1.62454 -0.37844,-0.37843 -0.95164,-0.23099 -1.7625,0.45335 -1.06004,0.89464 -1.12974,0.98857 -1.95599,2.63594 -0.79709,1.58922 -1.23802,3.37137 -1.2427,5.02277 -0.004,1.24491 -0.11943,1.39905 -1.24147,1.65116 -0.42783,0.0961 -0.84531,0.28114 -0.92773,0.41114 -0.28877,0.45545 -0.15731,0.86944 0.33574,1.05734 0.46088,0.17563 0.81318,0.15505 1.86518,-0.10899 0.34516,-0.0866 0.47524,-0.0175 0.63763,0.33893 0.34413,0.75529 1.52132,1.93385 2.27398,2.27664 0.8767,0.39928 1.59432,0.41634 2.59921,0.0618 z m 8.58734,-0.97224 c 1.23399,-0.38136 2.22698,-0.95737 4.19629,-2.43414 1.46414,-1.09795 1.86056,-1.80952 1.39983,-2.51269 -0.15018,-0.22919 -0.35905,-0.41671 -0.46415,-0.41671 -0.10511,0 -0.84493,0.60741 -1.64404,1.3498 -1.84667,1.71559 -3.50794,2.58077 -5.0362,2.62285 -1.24223,0.0342 -1.9963,-0.3215 -2.51074,-1.18436 -0.46395,-0.77818 -0.56205,-3.64354 -0.19193,-5.60595 0.32251,-1.70994 0.62291,-2.42219 1.05682,-2.50575 0.26789,-0.0516 0.31362,0.097 0.32894,1.06924 0.0252,1.59954 0.17001,2.01096 0.73092,2.07686 0.69527,0.0817 1.03784,-0.52702 1.03307,-1.83564 -0.004,-1.2133 -0.47262,-2.4544 -1.04058,-2.75836 -0.51294,-0.27452 -1.38476,-0.23873 -2.00562,0.0823 -1.43468,0.7419 -2.44694,5.64518 -1.79219,8.68115 0.37316,1.73032 1.53782,3.09968 3.01447,3.54431 0.82348,0.24795 1.73823,0.19387 2.92511,-0.17294 z"
       id="path4232"
       inkscape:connector-curvature="0" />
  </g>
  <g
     inkscape:groupmode="layer"
     id="layer10"
     inkscape:label="HISTORY_OVER"
     sodipodi:insensitive="true"
     style="display:none">
    <path
       style="fill:#efefef;fill-opacity:1;stroke:none;stroke-width:1.39999998;stroke-miterlimit:4;stroke-dasharray:none;stroke-opacity:1"
       d="m 386.49636,278.79698 c -7.22393,-0.39627 -13.51107,-2.01923 -17.12224,-4.41992 -1.62976,-1.08347 -2.24555,-1.79917 -3.78209,-4.39578 -3.03381,-5.12684 -3.70844,-8.26797 -2.58726,-12.04651 1.77374,-5.9778 4.38933,-9.39581 8.99131,-11.74971 2.01435,-1.03033 2.42482,-1.1557 8.25028,-2.51984 15.63281,-3.66071 23.64623,-4.35252 34.16307,-2.94935 4.19095,0.55917 6.76403,1.59843 9.60228,3.87833 3.9739,3.19214 6.08258,7.64521 6.10583,12.89414 0.013,2.93984 -0.63656,5.66422 -1.89471,7.94643 -0.68171,1.23658 -1.87061,2.22009 -5.09749,4.21687 -6.15465,3.80845 -13.86088,6.71242 -21.45041,8.08322 -5.03007,0.90853 -10.7201,1.30668 -15.17857,1.06212 z m -17.8815,-8.58542 c 0.2902,-0.54373 0.39366,-2.21898 0.24381,-3.94794 l -0.14484,-1.67116 0.54305,-0.39783 c 0.71558,-0.52423 2.17019,-1.34914 2.379,-1.34914 0.0909,0 0.21556,0.58259 0.27709,1.29464 0.19554,2.26262 1.17753,5.13225 1.84376,5.38791 0.34817,0.1336 0.74677,-0.0612 0.86089,-0.42078 0.0545,-0.17181 -0.10614,-0.76078 -0.35704,-1.30882 -0.83327,-1.82011 -1.03337,-3.25558 -1.05133,-7.54224 -0.009,-2.16071 -0.0815,-4.02902 -0.16093,-4.15179 -0.24295,-0.37537 -0.834,-0.25613 -1.00876,0.20352 -0.0892,0.2347 -0.21808,1.38142 -0.28634,2.54827 l -0.12409,2.12155 -1.5566,0.90399 -1.55661,0.90399 -0.30509,-2.33619 c -0.38557,-2.95248 -0.6044,-3.8208 -1.01877,-4.04257 -0.25057,-0.1341 -0.41294,-0.0942 -0.67219,0.165 -0.29516,0.29516 -0.31968,0.46021 -0.17964,1.20945 0.0892,0.4772 0.31786,2.03282 0.50814,3.45692 l 0.34597,2.58929 -0.5311,0.4175 c -0.61152,0.48071 -1.02783,1.23137 -0.92745,1.67232 0.10287,0.45187 0.68294,0.55856 1.19885,0.22052 l 0.45457,-0.29784 0,1.94508 c 0,1.47145 0.0677,2.04174 0.27799,2.34197 0.33388,0.47668 0.71994,0.51106 0.94766,0.0844 z m 9.54099,-2.30258 c -0.0203,-0.18224 -0.19816,-1.05457 -0.39521,-1.93849 -0.74636,-3.34797 -1.62143,-8.29171 -1.62143,-9.16033 0,-0.89919 -0.30138,-1.46467 -0.78061,-1.46467 -0.81624,0 -0.84974,1.6266 -0.10884,5.28464 0.29651,1.46398 0.66383,3.50169 0.81626,4.52825 0.42094,2.8349 0.96526,3.86581 1.75848,3.33049 0.20256,-0.1367 0.35166,-0.39765 0.33135,-0.57989 z m 6.20023,0.29233 c 0.98912,-0.50461 2.41068,-1.84065 2.96513,-2.78674 1.1082,-1.89101 0.48316,-4.20494 -1.39872,-5.1781 -0.56985,-0.29468 -0.89636,-0.29147 -3.89744,0.0383 -0.79361,0.0872 -1.03755,0.0504 -1.23398,-0.18631 -1.04268,-1.25635 1.46884,-4.70458 3.77316,-5.18041 0.9457,-0.19528 1.22487,-0.92191 0.56164,-1.46183 -0.6594,-0.53679 -2.85264,0.55995 -4.28225,2.14137 -2.17273,2.40344 -2.34435,5.40872 -0.35219,6.16695 0.57698,0.21959 0.96138,0.2238 2.60361,0.0285 2.1585,-0.2567 2.74404,-0.12669 3.17648,0.70528 0.82339,1.58412 -1.70382,4.62483 -3.85552,4.63894 -0.84881,0.006 -1.72324,-0.89861 -1.90001,-1.96463 -0.1823,-1.09939 -0.38704,-1.42431 -0.89752,-1.42431 -1.44549,0 -0.11606,3.97914 1.58844,4.75439 0.74051,0.3368 2.17861,0.20372 3.14917,-0.29142 z m 10.71416,0.0876 c 0.16503,-0.19885 0.19199,-0.6852 0.10144,-1.83036 -0.19536,-2.47089 -1.16397,-9.95802 -1.54016,-11.90514 -0.18852,-0.9758 -0.32419,-1.78857 -0.30147,-1.80615 0.0227,-0.0176 1.04577,-0.20953 2.27345,-0.42653 2.60231,-0.45997 3.10212,-0.65645 3.1866,-1.25268 0.12479,-0.88067 -0.23813,-0.8954 -4.03051,-0.16356 -5.82328,1.12375 -7.77266,1.91815 -7.4882,3.05155 0.15592,0.62122 0.5767,0.74035 1.15436,0.32683 0.57438,-0.41118 2.97597,-1.15482 3.31248,-1.02569 0.38769,0.14877 1.06552,4.58975 1.81539,11.89395 0.1554,1.51367 0.36159,2.89983 0.45821,3.08036 0.21304,0.39807 0.75145,0.42729 1.05841,0.0574 z m 8.94322,-2.68165 c 0.93728,-0.33069 1.49807,-0.82814 2.00631,-1.77968 0.3192,-0.59762 0.37991,-1.00596 0.37167,-2.5 -0.009,-1.57581 -0.0772,-1.95667 -0.58318,-3.24008 -1.08946,-2.76366 -2.38886,-4.33423 -4.27659,-5.16907 -1.21882,-0.53902 -1.7709,-0.45726 -2.72352,0.40338 -0.96027,0.86755 -1.33237,1.94319 -1.31779,3.80934 0.0186,2.38466 0.69202,4.60472 1.99067,6.56289 0.6805,1.0261 1.35886,1.58586 2.35195,1.94075 0.85414,0.30524 1.25153,0.30022 2.18048,-0.0275 z m 20.22755,-0.42606 c 1.44215,-0.89129 2.04627,-3.68134 1.7207,-7.94676 -0.33216,-4.35176 -0.9289,-9.65931 -1.11084,-9.88008 -0.23688,-0.28742 -0.79237,-0.28742 -0.9762,0 -0.0785,0.12277 -0.15069,1.58929 -0.16039,3.25893 -0.0188,3.23835 -0.22851,4.60359 -0.8232,5.35962 -0.44355,0.56388 -0.96212,0.52804 -1.42818,-0.0987 -0.54807,-0.73703 -0.78884,-3.54327 -0.5072,-5.91153 0.1881,-1.58172 0.18796,-1.98599 -7.2e-4,-2.21339 -0.39409,-0.47485 -0.9183,-0.23815 -1.2016,0.54259 -0.34379,0.94742 -0.3856,5.69873 -0.0616,7.00564 0.66055,2.6648 2.92345,3.53346 4.29012,1.64684 l 0.49773,-0.6871 0.11758,1.93598 c 0.13297,2.18937 -0.0988,4.28201 -0.56217,5.07538 -0.63735,1.0913 -2.0094,1.03224 -3.88444,-0.16721 -0.9615,-0.61507 -1.01891,-0.62923 -1.34708,-0.33224 -0.53399,0.48325 -0.41199,0.8589 0.48915,1.50605 1.96252,1.40937 3.63771,1.71608 4.94844,0.906 l -5e-5,0 z m -14.34862,-0.46459 c 0.28933,-0.34862 0.13542,-1.92975 -0.33497,-3.44112 -0.25661,-0.82448 -0.28764,-1.10863 -0.12109,-1.10863 0.12317,0 0.93841,0.52866 1.81163,1.1748 3.12318,2.31097 5.23277,3.30865 6.17281,2.91928 0.79939,-0.33112 0.63962,-1.4155 -0.20856,-1.4155 -0.68752,0 -3.00191,-1.20978 -4.86631,-2.54373 -0.85865,-0.61434 -1.56177,-1.15933 -1.5625,-1.21108 -7.2e-4,-0.0518 0.33052,-0.53389 0.73611,-1.07143 1.13745,-1.50748 1.46187,-2.3734 1.47004,-3.92376 0.0109,-2.05977 -0.68919,-3.01152 -2.41849,-3.28805 -1.04321,-0.16682 -1.71583,0.28572 -2.37828,1.60011 -0.43662,0.86632 -0.6078,1.05267 -0.92541,1.00746 -0.25732,-0.0366 -0.4624,0.0804 -0.60369,0.34436 -0.33644,0.62864 -0.0932,2.88239 0.51804,4.8004 0.29735,0.93304 0.59675,2.09822 0.66534,2.58929 0.0686,0.49107 0.28291,1.41518 0.47629,2.05357 0.49667,1.63964 1.03427,2.15839 1.56904,1.51403 z"
       id="path4235"
       inkscape:connector-curvature="0" />
    <path
       style="fill:#efefef;fill-opacity:1;stroke:none;stroke-width:1.39999998;stroke-miterlimit:4;stroke-dasharray:none;stroke-opacity:1"
       d="m 402.12136,264.0284 c -0.74888,-0.32984 -1.83441,-1.5868 -2.35792,-2.7303 -0.44813,-0.97883 -0.92888,-3.205 -0.93843,-4.34547 -0.008,-0.99487 0.33097,-2.00977 0.63314,-1.89382 0.14217,0.0546 0.51505,-0.0568 0.82861,-0.2475 1.018,-0.61909 1.92205,-0.0936 3.20077,1.86058 0.80051,1.22335 1.31091,2.73431 1.49067,4.41287 0.10475,0.97814 0.0652,1.31785 -0.23131,1.98822 -0.1967,0.44469 -0.50631,0.85067 -0.68802,0.90218 -0.89282,0.25312 -1.44902,0.2684 -1.93751,0.0532 z"
       id="path4237"
       inkscape:connector-curvature="0" />
    <path
       style="fill:#efefef;fill-opacity:1;stroke:none;stroke-width:1.39999998;stroke-miterlimit:4;stroke-dasharray:none;stroke-opacity:1"
       d="m 409.02457,256.02941 c 0.0948,-3.17615 0.75308,-4.30183 2.02734,-3.46691 0.65104,0.42659 0.74093,1.32672 0.27447,2.74852 -0.45187,1.37732 -1.04527,2.23641 -1.8223,2.63822 l -0.54523,0.28196 0.0657,-2.20179 z"
       id="path4239"
       inkscape:connector-curvature="0" />
  </g>
  <g
     inkscape:groupmode="layer"
     id="layer11"
     inkscape:label="ARCADE_OVER"
     sodipodi:insensitive="true"
     style="display:none">
    <path
       style="fill:#efefef;fill-opacity:1;stroke:none;stroke-width:1.39999998;stroke-miterlimit:4;stroke-dasharray:none;stroke-opacity:1"
       d="m 386.49636,278.79698 c -7.22393,-0.39627 -13.51107,-2.01923 -17.12224,-4.41992 -1.62976,-1.08347 -2.24555,-1.79917 -3.78209,-4.39578 -3.03381,-5.12684 -3.70844,-8.26797 -2.58726,-12.04651 1.77374,-5.9778 4.38933,-9.39581 8.99131,-11.74971 2.01435,-1.03033 2.42482,-1.1557 8.25028,-2.51984 15.63281,-3.66071 23.64623,-4.35252 34.16307,-2.94935 4.19095,0.55917 6.76403,1.59843 9.60228,3.87833 3.9739,3.19214 6.08258,7.64521 6.10583,12.89414 0.013,2.93984 -0.63656,5.66422 -1.89471,7.94643 -0.68171,1.23658 -1.87061,2.22009 -5.09749,4.21687 -6.15465,3.80845 -13.86088,6.71242 -21.45041,8.08322 -5.03007,0.90853 -10.7201,1.30668 -15.17857,1.06212 z m -16.84182,-11.19423 c 0.1583,-0.30613 0.5006,-1.20041 0.76065,-1.98729 l 0.47283,-1.43069 1.1408,-0.58301 c 0.62744,-0.32065 1.19923,-0.52155 1.27065,-0.44643 0.0714,0.0751 0.34768,0.65891 0.61392,1.2973 0.26623,0.63839 0.70091,1.67791 0.96595,2.31004 0.54288,1.29477 0.89912,1.63489 1.33419,1.27381 0.43597,-0.36183 0.34861,-0.84723 -0.52608,-2.92293 -1.19788,-2.84267 -1.20012,-2.77215 0.11165,-3.51652 1.19744,-0.67949 1.32762,-0.85011 1.15954,-1.5198 -0.14686,-0.58516 -0.49261,-0.56378 -1.67506,0.10355 -0.53558,0.30226 -1.03324,0.48307 -1.1059,0.40178 -0.10405,-0.1164 -1.08411,-4.12329 -1.52904,-6.25137 -0.0814,-0.38947 -0.53502,-0.95241 -0.76325,-0.94726 -0.42407,0.01 -0.59686,0.54141 -0.92998,2.86245 -0.47878,3.33588 -1.06029,6.26698 -1.30384,6.57193 -0.12488,0.15636 -0.40181,0.20666 -0.79052,0.14359 -1.0744,-0.17435 -1.74005,0.97896 -0.9033,1.56505 0.22563,0.15804 0.56428,0.2294 0.80358,0.16934 0.54431,-0.13661 0.53747,0.16906 -0.0311,1.39039 -0.5136,1.10328 -0.55893,1.62254 -0.17515,2.00632 0.36221,0.3622 0.74746,0.19041 1.09945,-0.49025 z m 10.91324,-0.68584 c 0.11786,-0.11785 0.21429,-0.42415 0.21429,-0.68065 0,-0.42815 -0.55325,-2.76334 -0.81837,-3.45423 -0.21939,-0.57172 0.37887,-0.28557 2.13188,1.01969 3.04689,2.26866 5.10093,3.16201 5.90032,2.56617 0.56542,-0.42144 0.26072,-1.1325 -0.55052,-1.28469 -1.12871,-0.21175 -3.62905,-1.65956 -5.61215,-3.24968 l -0.64526,-0.5174 0.53131,-0.61925 c 0.29222,-0.34058 0.77454,-1.12912 1.07183,-1.7523 0.44379,-0.93028 0.53915,-1.35284 0.53284,-2.36108 -0.0103,-1.63758 -0.40774,-2.44661 -1.46365,-2.97908 -1.56083,-0.78708 -2.53464,-0.39962 -3.23352,1.28657 -0.31578,0.76186 -0.48335,0.96729 -0.76529,0.93819 -0.95951,-0.099 -1.0154,1.9749 -0.12652,4.69489 0.27282,0.83482 0.67504,2.32143 0.89383,3.30357 0.62834,2.82065 1.23733,3.79093 1.93898,3.08928 z m 13.33929,-2.08901 c 1.16043,-0.56029 3.61604,-2.48756 3.96689,-3.11339 0.11928,-0.21278 0.21973,-0.57342 0.22321,-0.80142 0.006,-0.38562 0.0269,-0.39394 0.30166,-0.11921 0.21366,0.21366 0.46126,0.2642 0.89538,0.18276 l 0.60006,-0.11257 -0.37855,0.94606 c -0.67991,1.69925 -0.79018,2.2269 -0.53073,2.53951 0.59548,0.71752 1.23631,-0.0274 1.95544,-2.27312 l 0.51758,-1.6163 0.95667,-0.49537 c 0.52617,-0.27245 1.08379,-0.49916 1.23916,-0.5038 0.18154,-0.005 0.4474,0.3904 0.74399,1.10765 1.64774,3.98468 1.59571,3.88393 2.0057,3.88393 0.23744,0 0.46675,-0.15992 0.57403,-0.40034 0.14496,-0.32486 -10e-4,-0.83403 -0.77629,-2.70097 -0.5252,-1.26534 -0.95491,-2.40902 -0.95491,-2.5415 0,-0.13248 0.26116,-0.37296 0.58035,-0.5344 1.57547,-0.79681 2.14885,-1.65492 1.47789,-2.21177 -0.21397,-0.17758 -0.47958,-0.0974 -1.42054,0.42882 l -1.15736,0.64723 -0.17696,-0.67389 c -0.0973,-0.37064 -0.42663,-1.7989 -0.73178,-3.1739 -0.30515,-1.375 -0.65377,-2.70032 -0.77471,-2.94516 -0.22837,-0.46233 -0.7605,-0.68131 -1.02013,-0.4198 -0.0823,0.0829 -0.3188,1.31586 -0.52561,2.73996 -0.46585,3.20784 -1.06507,6.28571 -1.266,6.50274 -0.0832,0.0899 -0.47705,0.15068 -0.87514,0.13508 -0.61926,-0.0243 -0.76853,0.0452 -1.03342,0.48074 -0.25289,0.41585 -0.36542,0.4739 -0.6143,0.31691 -0.25524,-0.161 -0.53129,0.0444 -1.70074,1.26518 -1.59184,1.66179 -2.83323,2.3662 -4.17497,2.36904 -0.94191,0.002 -1.60234,-0.41543 -2.06121,-1.30278 -0.3906,-0.75535 -0.51686,-3.30195 -0.25313,-5.10563 0.42848,-2.93036 0.93092,-3.37196 1.18921,-1.0452 0.15851,1.42782 0.17867,1.47495 0.65453,1.52971 0.39176,0.0451 0.52709,-0.0385 0.66964,-0.41341 0.53122,-1.39721 -0.11012,-3.75168 -1.11598,-4.09701 -1.72216,-0.59125 -2.90179,1.83638 -2.90179,5.97178 0,2.51827 0.34146,3.79198 1.30178,4.85586 1.2295,1.36209 2.73998,1.59173 4.59108,0.69798 z m 18.96751,-2.25576 c 1.24225,-0.55454 2.61565,-1.87026 3.20088,-3.06642 1.29271,-2.64221 0.44112,-6.51648 -1.82803,-8.3166 -2.71473,-2.1536 -5.29893,-2.47481 -6.50588,-0.80867 -0.87424,1.20686 -0.65024,2.85656 0.35228,2.59439 0.30123,-0.0788 0.37694,0.0475 0.54939,0.91643 0.25759,1.29797 0.7746,3.19161 1.5377,5.63214 0.33462,1.07017 0.58668,1.95792 0.56014,1.97277 -0.0265,0.0148 -0.26926,0.1219 -0.53935,0.23789 -0.55749,0.23943 -0.64464,0.75377 -0.2026,1.1958 0.3726,0.3726 1.57434,0.2231 2.87547,-0.35773 z m 11.47569,-1.33215 c 0.38325,-0.19552 0.90797,-0.63231 1.16603,-0.97065 0.38729,-0.50777 0.43476,-0.67951 0.27192,-0.98379 -0.20519,-0.38341 -0.79752,-0.49874 -0.98698,-0.19218 -0.06,0.0971 -0.45014,0.37634 -0.86702,0.62065 -0.64587,0.3785 -0.85068,0.4186 -1.38485,0.2711 -0.77653,-0.21441 -1.5472,-0.99447 -1.69053,-1.71115 -0.0946,-0.4731 -0.0228,-0.60631 0.57426,-1.06497 0.37532,-0.28832 1.03061,-0.74685 1.4562,-1.01894 0.85176,-0.54456 0.95502,-1.05568 0.30056,-1.48783 -0.3197,-0.21111 -0.48566,-0.15835 -1.48039,0.4706 -0.61618,0.38961 -1.15574,0.70837 -1.19902,0.70837 -0.11327,0 0.0894,-1.51121 0.37733,-2.81409 0.31489,-1.42469 0.93913,-2.64455 1.75335,-3.4263 0.6777,-0.65068 0.81617,-1.24902 0.37398,-1.61601 -0.21567,-0.17899 -0.35895,-0.16129 -0.74571,0.0921 -0.84547,0.55397 -1.34638,1.21381 -2.03068,2.67498 -0.81697,1.74448 -1.06379,2.86374 -1.06379,4.82394 0,1.62862 -0.12979,1.83978 -1.20322,1.95761 -0.78738,0.0864 -1.04507,1.00032 -0.38211,1.35513 0.35937,0.19233 0.95245,0.1546 1.6179,-0.10293 0.21751,-0.0842 0.38048,0.0385 0.59046,0.44459 0.38108,0.73693 1.50247,1.9698 1.96063,2.15553 0.65652,0.26615 1.87735,0.17863 2.59168,-0.18579 z"
       id="path4244"
       inkscape:connector-curvature="0" />
    <path
       style="fill:#efefef;fill-opacity:1;stroke:none;stroke-width:1.39999998;stroke-miterlimit:4;stroke-dasharray:none;stroke-opacity:1"
       d="m 371.582,261.37727 c 0.32075,-2.06379 0.49515,-3.01052 0.54532,-2.96035 0.094,0.094 0.61904,2.46834 0.61904,2.79943 0,0.18342 -0.26558,0.43963 -0.64154,0.61892 l -0.64155,0.30593 0.11873,-0.76393 z"
       id="path4246"
       inkscape:connector-curvature="0" />
    <path
       style="fill:#efefef;fill-opacity:1;stroke:none;stroke-width:1.39999998;stroke-miterlimit:4;stroke-dasharray:none;stroke-opacity:1"
       d="m 379.55981,258.15919 c 0.0802,-2.7452 0.29915,-3.34942 1.21362,-3.34942 1.08145,0 1.47679,1.11138 0.99509,2.79744 -0.3762,1.3168 -1.00574,2.2896 -1.72111,2.65953 l -0.55761,0.28835 0.07,-2.3959 z"
       id="path4248"
       inkscape:connector-curvature="0" />
    <path
       style="fill:#efefef;fill-opacity:1;stroke:none;stroke-width:1.39999998;stroke-miterlimit:4;stroke-dasharray:none;stroke-opacity:1"
       d="m 412.1555,261.10376 c -0.17918,-0.31665 -1.21125,-3.65396 -1.55987,-5.04399 -0.43473,-1.73333 -0.88438,-4.17267 -0.88474,-4.79961 -2.3e-4,-0.39871 0.046,-0.41753 0.75868,-0.30858 1.13568,0.17363 2.90402,1.10562 3.52405,1.85732 1.74898,2.1204 1.66208,5.87339 -0.17173,7.41644 -0.72733,0.61201 -1.56676,1.0545 -1.66639,0.87842 z"
       id="path4250"
       inkscape:connector-curvature="0" />
    <path
       style="fill:#efefef;fill-opacity:1;stroke:none;stroke-width:1.39999998;stroke-miterlimit:4;stroke-dasharray:none;stroke-opacity:1"
       d="m 411.51295,259.3187 c -1.07268,-3.49446 -1.80231,-6.71083 -1.80231,-7.94502 0,-0.52093 0.0232,-0.53639 0.67376,-0.44913 0.94075,0.12618 2.89433,1.07655 3.45838,1.68242 0.96771,1.03944 1.29061,1.96972 1.33688,3.85145 0.0235,0.95587 -0.0322,1.78427 -0.12386,1.8409 -0.0916,0.0566 -0.16659,0.22644 -0.16659,0.37735 0,0.4244 -0.6864,1.28923 -1.47883,1.86327 -1.16285,0.84236 -1.28887,0.76125 -1.89743,-1.22124 z"
       id="path4252"
       inkscape:connector-curvature="0" />
    <path
       style="fill:#efefef;fill-opacity:1;stroke:none;stroke-width:1.39999998;stroke-miterlimit:4;stroke-dasharray:none;stroke-opacity:1"
       d="m 402.14181,257.62227 c 0.0627,-0.41741 0.20816,-1.28125 0.32329,-1.91964 l 0.20932,-1.16072 0.30382,1.31655 c 0.40759,1.76618 0.39109,1.93273 -0.22302,2.2503 -0.72932,0.37715 -0.74163,0.36738 -0.61341,-0.48649 z"
       id="path4254"
       inkscape:connector-curvature="0" />
  </g>
  <g
     inkscape:groupmode="layer"
     id="layer12"
     inkscape:label="COOP_CHOICE"
     style="display:none"
     sodipodi:insensitive="true">
    <path
       style="fill:#1394a2;fill-opacity:1;stroke:none;stroke-width:1.39999998;stroke-miterlimit:4;stroke-dasharray:none;stroke-opacity:1"
       d="m 387.12136,280.22442 c -9.32122,-0.32095 -17.56115,-2.93415 -20.779,-6.58982 -1.32941,-1.5103 -3.71728,-5.8801 -4.57835,-8.3784 -0.702,-2.03677 -0.81807,-4.92325 -0.28183,-7.00858 1.77694,-6.91018 5.26315,-11.33304 10.89029,-13.8162 2.87708,-1.26961 16.44079,-4.31 22.96317,-5.14734 3.24591,-0.41671 5.75094,-0.56172 9.6034,-0.55592 6.56373,0.01 11.90517,0.64354 14.68232,1.74176 5.79232,2.29057 9.55326,6.3325 11.266,12.10771 0.39507,1.33211 0.49082,2.06552 0.55954,4.28571 0.0934,3.01809 -0.21238,5.03808 -1.10849,7.32226 -0.90757,2.31339 -1.59955,3.29681 -3.09782,4.40249 -7.7297,5.70434 -18.29756,9.73749 -29.13709,11.11998 -1.88017,0.2398 -9.18287,0.70143 -9.46429,0.59827 -0.0491,-0.018 -0.73214,-0.0549 -1.51785,-0.0819 z m 5.89285,-1.30909 c 12.86055,-0.80523 24.17372,-4.6044 33.3369,-11.19511 1.17064,-0.84201 1.46762,-1.16807 2.01832,-2.21606 1.34238,-2.55456 1.89181,-4.84808 1.89886,-7.92653 0.0166,-7.27093 -4.032,-13.12846 -11.01105,-15.9307 -2.6127,-1.04905 -8.28186,-1.71859 -14.45731,-1.70744 -7.34184,0.0133 -13.69076,0.95275 -25.625,3.79192 -4.64126,1.10416 -5.22642,1.28582 -7.05357,2.18973 -4.00541,1.98153 -6.80745,5.12805 -8.44208,9.47991 -2.16869,5.7737 -1.79813,8.66635 1.91373,14.93903 0.92988,1.57141 1.54273,2.37525 2.43245,3.19052 3.10157,2.84201 9.98679,4.93796 17.66732,5.37813 3.4954,0.20033 4.21697,0.20098 7.32143,0.007 l 0,1e-5 z"
       id="path4257"
       inkscape:connector-curvature="0" />
  </g>
  <g
     inkscape:groupmode="layer"
     id="layer13"
     inkscape:label="CHOICE"
     sodipodi:insensitive="true"
     style="display:none">
    <path
       style="fill:#cccccc;fill-opacity:1;stroke:none;stroke-width:1.39999998;stroke-miterlimit:4;stroke-dasharray:none;stroke-opacity:1"
       d="m 387.12136,280.22442 c -9.32122,-0.32095 -17.56115,-2.93415 -20.779,-6.58982 -1.32941,-1.5103 -3.71728,-5.8801 -4.57835,-8.3784 -0.702,-2.03677 -0.81807,-4.92325 -0.28183,-7.00858 1.77694,-6.91018 5.26315,-11.33304 10.89029,-13.8162 2.87708,-1.26961 16.44079,-4.31 22.96317,-5.14734 3.24591,-0.41671 5.75094,-0.56172 9.6034,-0.55592 6.56373,0.01 11.90517,0.64354 14.68232,1.74176 5.79232,2.29057 9.55326,6.3325 11.266,12.10771 0.39507,1.33211 0.49082,2.06552 0.55954,4.28571 0.0934,3.01809 -0.21238,5.03808 -1.10849,7.32226 -0.90757,2.31339 -1.59955,3.29681 -3.09782,4.40249 -7.7297,5.70434 -18.29756,9.73749 -29.13709,11.11998 -1.88017,0.2398 -9.18287,0.70143 -9.46429,0.59827 -0.0491,-0.018 -0.73214,-0.0549 -1.51785,-0.0819 z m 5.89285,-1.30909 c 12.86055,-0.80523 24.17372,-4.6044 33.3369,-11.19511 1.17064,-0.84201 1.46762,-1.16807 2.01832,-2.21606 1.34238,-2.55456 1.89181,-4.84808 1.89886,-7.92653 0.0166,-7.27093 -4.032,-13.12846 -11.01105,-15.9307 -2.6127,-1.04905 -8.28186,-1.71859 -14.45731,-1.70744 -7.34184,0.0133 -13.69076,0.95275 -25.625,3.79192 -4.64126,1.10416 -5.22642,1.28582 -7.05357,2.18973 -4.00541,1.98153 -6.80745,5.12805 -8.44208,9.47991 -2.16869,5.7737 -1.79813,8.66635 1.91373,14.93903 0.92988,1.57141 1.54273,2.37525 2.43245,3.19052 3.10157,2.84201 9.98679,4.93796 17.66732,5.37813 3.4954,0.20033 4.21697,0.20098 7.32143,0.007 l 0,1e-5 z"
       id="path4260"
       inkscape:connector-curvature="0" />
    <path
       style="fill:#4d4d4d;fill-opacity:1;stroke:none;stroke-width:1.39999998;stroke-miterlimit:4;stroke-dasharray:none;stroke-opacity:1"
       d="m 385.15707,280.04901 c -8.05361,-0.65241 -14.74744,-2.80073 -18.00595,-5.77881 -1.16462,-1.0644 -2.48274,-3.05868 -3.89234,-5.889 -1.71457,-3.44265 -1.84221,-3.93619 -1.84731,-7.14286 -0.004,-2.72884 0.005,-2.79556 0.66021,-4.73353 2.05417,-6.07556 5.58198,-10.07109 10.68358,-12.10001 3.23098,-1.28497 15.37775,-4.01063 22.04015,-4.94568 7.17142,-1.00648 17.44352,-0.76763 22.9196,0.53294 1.7393,0.41308 4.27247,1.55622 5.9461,2.68327 1.31749,0.88723 3.77056,3.28249 4.57438,4.4666 0.84431,1.24375 1.91843,3.48203 2.47996,5.16784 0.49157,1.47574 0.50548,1.62191 0.50151,5.26786 -0.004,3.63177 -0.02,3.79786 -0.5083,5.26786 -1.20559,3.62915 -2.10271,4.77882 -5.4623,7.00001 -7.04369,4.65691 -15.7186,7.94752 -24.83808,9.42172 -4.27797,0.69155 -11.68085,1.07103 -15.25121,0.78179 z m 9.2155,-1.15173 c 1.31541,-0.10902 2.41242,-0.2517 2.43781,-0.31708 0.0254,-0.0654 0.36691,-0.0883 0.75893,-0.0509 0.39202,0.0374 0.71341,-7.1e-4 0.71421,-0.0847 7.1e-4,-0.084 0.46285,-0.16457 1.02678,-0.17909 1.36365,-0.0351 5.76313,-0.94356 8.97177,-1.85256 6.49984,-1.84139 13.76224,-5.32907 18.29112,-8.78407 1.44723,-1.10407 2.09566,-2.14602 2.96265,-4.76064 0.51936,-1.56625 0.79674,-3.51225 0.7541,-5.29061 -0.007,-0.29464 -0.0207,-1.03795 -0.0303,-1.65179 -0.01,-0.61384 -0.0858,-1.11607 -0.16918,-1.11607 -0.0834,0 -0.11329,-0.20089 -0.0663,-0.44643 0.0486,-0.25436 0.002,-0.44643 -0.10845,-0.44643 -0.10658,0 -0.14862,-0.11768 -0.0934,-0.26151 0.14535,-0.37877 -0.57638,-2.46041 -1.4246,-4.10887 -1.71127,-3.32577 -4.61974,-5.9853 -8.34174,-7.62776 -0.84337,-0.37217 -1.77193,-0.70278 -2.06346,-0.73469 -0.29153,-0.0319 -0.62465,-0.11649 -0.74026,-0.18795 -0.43064,-0.26615 -5.03234,-0.84741 -7.28913,-0.92071 -1.2853,-0.0418 -2.45986,-0.12309 -2.61011,-0.18075 -0.15026,-0.0577 -1.38883,-0.0678 -2.75237,-0.0225 -1.36355,0.0453 -3.14212,0.0845 -3.95239,0.0871 -0.81027,0.003 -1.47321,0.0794 -1.47321,0.17072 0,0.0913 -0.19801,0.12814 -0.44002,0.0819 -2.32608,-0.44466 -22.62839,3.73473 -26.06095,5.36484 -4.88262,2.31875 -7.73197,5.64855 -9.49802,11.09956 -0.3485,1.07566 -0.66072,2.34731 -0.69381,2.82588 -0.0331,0.47857 -0.10771,0.91768 -0.16583,0.97579 -0.16647,0.16647 -0.12317,1.65328 0.0481,1.65328 0.0846,0 0.11742,0.19034 0.073,0.42298 -0.20669,1.08125 0.94984,4.11833 2.751,7.22416 1.23095,2.12259 2.63996,3.80926 3.91507,4.68656 3.35433,2.30783 9.17821,3.92644 16.23217,4.51132 1.76184,0.14609 6.85894,0.10156 9.03693,-0.0789 z"
       id="path4262"
       inkscape:connector-curvature="0" />
  </g>
  <g
     inkscape:groupmode="layer"
     id="layer14"
     inkscape:label="BETRAY_CHOICE"
     sodipodi:insensitive="true"
     style="display:none">
    <path
       style="fill:#e54a3b;fill-opacity:1;stroke:none;stroke-width:1.39999998;stroke-miterlimit:4;stroke-dasharray:none;stroke-opacity:1"
       d="m 387.12136,280.22442 c -9.32122,-0.32095 -17.56115,-2.93415 -20.779,-6.58982 -1.32941,-1.5103 -3.71728,-5.8801 -4.57835,-8.3784 -0.702,-2.03677 -0.81807,-4.92325 -0.28183,-7.00858 1.77694,-6.91018 5.26315,-11.33304 10.89029,-13.8162 2.87708,-1.26961 16.44079,-4.31 22.96317,-5.14734 3.24591,-0.41671 5.75094,-0.56172 9.6034,-0.55592 6.56373,0.01 11.90517,0.64354 14.68232,1.74176 5.79232,2.29057 9.55326,6.3325 11.266,12.10771 0.39507,1.33211 0.49082,2.06552 0.55954,4.28571 0.0934,3.01809 -0.21238,5.03808 -1.10849,7.32226 -0.90757,2.31339 -1.59955,3.29681 -3.09782,4.40249 -7.7297,5.70434 -18.29756,9.73749 -29.13709,11.11998 -1.88017,0.2398 -9.18287,0.70143 -9.46429,0.59827 -0.0491,-0.018 -0.73214,-0.0549 -1.51785,-0.0819 z m 5.89285,-1.30909 c 12.86055,-0.80523 24.17372,-4.6044 33.3369,-11.19511 1.17064,-0.84201 1.46762,-1.16807 2.01832,-2.21606 1.34238,-2.55456 1.89181,-4.84808 1.89886,-7.92653 0.0166,-7.27093 -4.032,-13.12846 -11.01105,-15.9307 -2.6127,-1.04905 -8.28186,-1.71859 -14.45731,-1.70744 -7.34184,0.0133 -13.69076,0.95275 -25.625,3.79192 -4.64126,1.10416 -5.22642,1.28582 -7.05357,2.18973 -4.00541,1.98153 -6.80745,5.12805 -8.44208,9.47991 -2.16869,5.7737 -1.79813,8.66635 1.91373,14.93903 0.92988,1.57141 1.54273,2.37525 2.43245,3.19052 3.10157,2.84201 9.98679,4.93796 17.66732,5.37813 3.4954,0.20033 4.21697,0.20098 7.32143,0.007 l 0,1e-5 z"
       id="path4265"
       inkscape:connector-curvature="0" />
  </g>
  <g
     inkscape:groupmode="layer"
     id="layer15"
     inkscape:label="START"
     sodipodi:insensitive="true">
    <text
       xml:space="preserve"
       style="font-style:normal;font-weight:normal;font-size:40px;line-height:125%;font-family:sans-serif;letter-spacing:0px;word-spacing:0px;fill:#000000;fill-opacity:1;stroke:none;stroke-width:1px;stroke-linecap:butt;stroke-linejoin:miter;stroke-opacity:1"
       x="333.77707"
       y="311.36414"
       id="text4407"
       sodipodi:linespacing="125%"
       transform="matrix(0.99311522,-0.11714163,0.11714163,0.99311522,0,0)"><tspan
         sodipodi:role="line"
         id="tspan4409"
         x="333.77707"
         y="311.36414"
         style="font-style:normal;font-variant:normal;font-weight:normal;font-stretch:normal;font-family:'Just Me Again Down Here';-inkscape-font-specification:'Just Me Again Down Here'">Start</tspan></text>
  </g>
  <g
     inkscape:groupmode="layer"
     id="layer16"
     inkscape:label="START_OVER"
     sodipodi:insensitive="true"
     style="display:inline">
    <path
       style="fill:#f1f1f1;fill-opacity:0.94509804;stroke:#000000;stroke-width:0.01785714;stroke-linejoin:round;stroke-miterlimit:4;stroke-dasharray:none;stroke-opacity:1"
       d="m 383.83036,278.60832 c -2.59882,-0.2477 -5.91618,-0.86006 -8.21429,-1.5163 -2.77591,-0.79267 -6.08245,-2.40568 -7.45094,-3.63475 -1.16481,-1.04613 -2.56954,-3.20718 -4.00649,-6.16361 -1.92726,-3.96524 -2.12148,-6.43329 -0.81586,-10.36759 1.98763,-5.98946 5.05365,-9.42784 10.24739,-11.49191 2.16651,-0.86101 14.20294,-3.5869 19.34733,-4.3816 7.83437,-1.21024 14.69599,-1.29456 21.96429,-0.26993 2.70656,0.38155 3.89977,0.73739 6.0017,1.78982 8.32987,4.17074 11.621,14.13886 7.45927,22.59253 -0.68965,1.40088 -1.16963,1.83628 -4.26455,3.86841 -7.98146,5.24065 -18.24544,8.62304 -29.10714,9.59197 -2.39684,0.21381 -8.84192,0.20397 -11.16071,-0.017 l 0,0 z m -8.91189,-8.37512 c 2.04663,-0.70297 4.46052,-2.72918 5.36764,-4.50556 1.18003,-2.3108 0.12359,-5.16146 -2.29905,-6.20365 -0.81289,-0.34969 -1.12246,-0.38757 -2.36737,-0.28962 -0.7877,0.062 -2.03487,0.21791 -2.77148,0.34653 -2.30243,0.40202 -3.04819,-0.10254 -2.66736,-1.80466 0.48175,-2.15325 2.95944,-4.51729 5.46163,-5.21112 1.52266,-0.42222 1.80077,-0.68715 1.49537,-1.42446 -0.28172,-0.68013 -0.81276,-0.8322 -1.92723,-0.55186 -1.51296,0.38057 -2.91772,1.27025 -4.51677,2.86062 -1.9282,1.91773 -2.57538,3.12947 -2.5768,4.82463 -0.002,2.94141 1.59447,3.83107 5.82328,3.24415 2.58152,-0.35829 3.44828,-0.2571 4.25534,0.49681 1.07949,1.00839 0.59659,2.84357 -1.22847,4.66863 -1.19911,1.19911 -2.13365,1.6817 -3.60301,1.86054 -0.76246,0.0928 -1.1367,0.0522 -1.56602,-0.16978 -0.61545,-0.31826 -1.62793,-1.59 -1.62952,-2.04678 -0.002,-0.53585 -0.369,-1.61233 -0.64349,-1.88683 -0.40316,-0.40316 -1.09057,-0.33864 -1.39846,0.13127 -0.22653,0.34573 -0.23197,0.54925 -0.0371,1.38768 0.44887,1.93095 1.56454,3.54499 2.96056,4.28303 0.86721,0.45847 2.51752,0.45439 3.86828,-0.01 l 0,0 z m 13.21087,-1.86505 c 0.27191,-0.41498 0.2565,-0.57924 -0.25545,-2.72321 -0.66101,-2.76819 -1.42922,-6.71923 -1.56971,-8.07331 l -0.10314,-0.994 1.58252,-0.74459 c 0.87038,-0.40953 1.96436,-0.87828 2.43106,-1.04169 0.93737,-0.32819 1.21595,-0.82955 0.84552,-1.5217 -0.18291,-0.34178 -0.32287,-0.38391 -1.04197,-0.31368 -0.45687,0.0446 -1.55108,0.37551 -2.43157,0.73532 -0.8805,0.35981 -1.65754,0.65419 -1.72676,0.65419 -0.22598,0 -0.6902,-2.45308 -0.6902,-3.6472 0,-1.06037 -0.0423,-1.19371 -0.467,-1.47199 -0.41504,-0.27194 -0.51812,-0.2773 -0.9263,-0.0482 -0.75803,0.42548 -0.83589,1.19329 -0.37551,3.70327 0.47261,2.57669 0.47695,2.56775 -1.17147,2.41521 -0.93323,-0.0864 -1.12153,-0.0509 -1.40573,0.26488 -0.41858,0.46508 -0.33324,0.88458 0.27177,1.33585 0.37153,0.27712 0.77757,0.3617 1.80533,0.37607 l 1.32599,0.0185 0.39283,2.41072 c 0.47971,2.94389 1.56531,7.95179 1.83484,8.46422 0.41054,0.78047 1.23087,0.87906 1.67495,0.2013 z m 17.17012,-0.57855 c 0.24956,-0.38186 0.31054,-0.81821 0.28794,-2.06053 -0.0254,-1.39382 0.006,-1.56554 0.26786,-1.48486 2.37373,0.7303 6.31325,0.93403 6.89091,0.35638 0.35987,-0.35987 0.35987,-1.0432 0,-1.40307 -0.22325,-0.22325 -0.7094,-0.28061 -2.3783,-0.28061 -2.10775,0 -3.49706,-0.25572 -4.20612,-0.7742 -0.32777,-0.23967 -0.31574,-0.28014 0.31075,-1.04468 0.97346,-1.18798 1.5916,-2.67904 1.69193,-4.08121 0.073,-1.02084 0.0178,-1.35048 -0.36729,-2.19161 -0.51652,-1.12822 -1.13143,-1.55116 -2.25527,-1.55116 -0.88952,0 -1.80588,0.74094 -2.42334,1.95943 -0.23156,0.45698 -0.54783,0.9361 -0.70281,1.06473 -0.35162,0.29181 -0.35586,1.00866 -0.0166,2.80433 0.14586,0.77201 0.25363,1.64473 0.23948,1.93937 -0.0395,0.82319 0.52981,4.90982 0.81693,5.86384 0.14056,0.46705 0.3525,0.96599 0.47098,1.10874 0.35052,0.42236 1.02178,0.3124 1.37293,-0.22489 l 10e-6,0 z m -3.37982,-0.26555 c 0.38794,-0.38794 0.24412,-1.12867 -0.31606,-1.62779 -0.62649,-0.5582 -1.12404,-1.49714 -1.40741,-2.65596 -0.28979,-1.18507 -0.78144,-7.05335 -0.64353,-7.68123 0.35633,-1.62235 -2.09341,-1.61638 -3.52014,0.009 -1.36551,1.55523 -2.64584,5.37011 -2.64633,7.88498 -3.5e-4,1.73395 0.23749,2.54802 0.90954,3.11352 1.35357,1.13895 2.73924,0.21827 3.567,-2.37002 0.17789,-0.55625 0.32776,-0.87354 0.33304,-0.7051 0.0172,0.54905 0.56925,1.96969 1.04434,2.68761 0.80948,1.2232 2.13581,1.88916 2.67955,1.34541 z m 17.71948,-2.83113 c 0.1547,-0.28905 0.0443,-1.03702 -0.52068,-3.52679 -0.76263,-3.36095 -1.4488,-7.09228 -1.4488,-7.87847 0,-0.4231 0.1732,-0.55741 1.5625,-1.21165 0.85938,-0.40469 1.90271,-0.82584 2.31852,-0.93589 1.042,-0.27577 1.44387,-1.0871 0.83837,-1.6926 -0.4489,-0.4489 -1.21778,-0.33288 -3.2791,0.49479 l -1.93112,0.77541 -0.2903,-1.20274 c -0.15966,-0.66151 -0.2903,-1.71829 -0.2903,-2.34842 0,-1.49922 -0.45699,-2.07652 -1.37392,-1.73564 -0.73222,0.27222 -0.8495,1.24669 -0.42787,3.55505 0.53857,2.94851 0.61716,2.73427 -0.94923,2.58749 -1.28353,-0.12028 -1.33128,-0.11047 -1.62195,0.33316 -0.64885,0.99027 0.14993,1.60734 2.10246,1.62418 l 1.28837,0.0111 0.48723,2.81702 c 0.63886,3.69374 1.49917,7.51725 1.83951,8.1754 0.22082,0.42701 0.38676,0.52544 0.88585,0.52544 0.43679,0 0.67083,-0.10594 0.81046,-0.36685 z"
       id="path4412"
       inkscape:connector-curvature="0" />
    <path
       style="fill:#f1f1f1;fill-opacity:0.94509804;stroke:#000000;stroke-width:0.01785714;stroke-linejoin:round;stroke-miterlimit:4;stroke-dasharray:none;stroke-opacity:1"
       d="m 395.42274,263.52703 c 0.004,-1.65045 0.40614,-3.45746 1.06498,-4.78722 l 0.54042,-1.09076 -0.0961,1.07143 c -0.095,1.05906 -1.20225,5.7315 -1.40669,5.93595 -0.0582,0.0581 -0.10433,-0.45008 -0.10263,-1.1294 z"
       id="path4414"
       inkscape:connector-curvature="0" />
    <path
       style="fill:#f1f1f1;fill-opacity:0.94509804;stroke:#000000;stroke-width:0.01785714;stroke-linejoin:round;stroke-miterlimit:4;stroke-dasharray:none;stroke-opacity:1"
       d="m 404.70536,258.3576 c 0,-2.23721 0.41015,-3.29328 1.16632,-3.00311 0.26037,0.0999 0.29354,0.30661 0.22374,1.39427 -0.0837,1.30407 -0.81203,3.31101 -1.20161,3.31101 -0.11904,0 -0.18845,-0.62695 -0.18845,-1.70217 z"
       id="path4416"
       inkscape:connector-curvature="0" />
  </g>
  <g
     inkscape:groupmode="layer"
     id="layer17"
     inkscape:label="START_CHOICE"
     sodipodi:insensitive="true"
     style="display:inline">
    <path
       style="fill:#4d4d4d;fill-opacity:0.94509804;stroke:#000000;stroke-width:0.01785714;stroke-linejoin:round;stroke-miterlimit:4;stroke-dasharray:none;stroke-opacity:1"
       d=""
       id="path4419"
       inkscape:connector-curvature="0" />
    <path
       style="fill:#4d4d4d;fill-opacity:0.94509804;stroke:#000000;stroke-width:0.01785714;stroke-linejoin:round;stroke-miterlimit:4;stroke-dasharray:none;stroke-opacity:1"
       d=""
       id="path4421"
       inkscape:connector-curvature="0" />
    <path
       style="fill:#4d4d4d;fill-opacity:0.94509804;stroke:#000000;stroke-width:0.01785714;stroke-linejoin:round;stroke-miterlimit:4;stroke-dasharray:none;stroke-opacity:1"
       d="m 384.09821,280.04105 c -7.39171,-0.64562 -13.75266,-2.75799 -16.95665,-5.63103 -1.91611,-1.71818 -4.82648,-6.95823 -5.63507,-10.14578 -0.7032,-2.77208 -0.58058,-4.51892 0.56461,-8.04376 1.94691,-5.99245 5.65063,-10.00031 11.29883,-12.22662 1.02802,-0.40521 9.30042,-2.39178 13.67471,-3.28392 10.94758,-2.23274 19.08999,-2.6036 28.1761,-1.28334 2.41978,0.3516 3.25539,0.55486 4.66181,1.13395 2.39256,0.98513 4.54412,2.37843 6.25844,4.05279 2.41189,2.35568 3.96853,5.05395 4.87217,8.44539 0.40229,1.5098 0.46181,2.08993 0.46181,4.50104 0,2.42589 -0.0583,2.9869 -0.4719,4.54082 -0.4236,1.59153 -1.71036,4.55099 -2.30435,5.29984 -0.12524,0.15789 -0.95043,0.80567 -1.83375,1.43949 -8.79977,6.31425 -19.84832,10.16856 -32.14176,11.21273 -2.47642,0.21034 -8.15502,0.20414 -10.625,-0.0116 l 0,-10e-6 z m 13.92858,-1.56096 c 7.67636,-1.04592 14.02801,-2.93932 20.44642,-6.09499 3.27126,-1.60834 5.32448,-2.81875 7.82475,-4.61282 1.11052,-0.79686 1.51935,-1.22249 1.99827,-2.08038 1.55049,-2.77742 2.29221,-6.62952 1.91921,-9.96738 -0.73631,-6.58913 -4.65781,-11.60589 -11.02794,-14.10801 -3.9365,-1.54622 -14.61953,-2.16804 -22.14286,-1.28886 -5.14007,0.60067 -12.43717,2.03649 -20.26785,3.98804 -4.385,1.09282 -6.93523,2.47488 -9.40859,5.09886 -2.09238,2.21981 -3.27958,4.41467 -4.4542,8.23477 -0.67635,2.1996 -0.71276,4.89491 -0.0929,6.87473 0.83879,2.67906 3.33464,7.20791 4.75505,8.62833 2.78206,2.78205 8.94127,4.90861 16.34348,5.64283 2.81139,0.27886 11.10791,0.0935 14.10715,-0.31512 z"
       id="path4423"
       inkscape:connector-curvature="0" />
  </g>
  <g
     inkscape:groupmode="layer"
     id="layer2"
     inkscape:label="COOP"
     sodipodi:insensitive="true"
     style="display:none">
    <text
       xml:space="preserve"
       style="font-style:normal;font-weight:normal;font-size:34.94602203px;line-height:125%;font-family:sans-serif;letter-spacing:0px;word-spacing:0px;fill:#1394a2;fill-opacity:1;stroke:none;stroke-width:1px;stroke-linecap:butt;stroke-linejoin:miter;stroke-opacity:1"
       x="350.90854"
       y="279.88885"
       id="text4174"
       sodipodi:linespacing="125%"
       transform="scale(1.0544058,0.94840142)"><tspan
         sodipodi:role="line"
         id="tspan4176"
         x="350.90854"
         y="279.88885"
         style="font-style:normal;font-variant:normal;font-weight:normal;font-stretch:normal;font-family:'Just Me Again Down Here';-inkscape-font-specification:'Just Me Again Down Here';fill:#1394a2;fill-opacity:1">COOP</tspan></text>
  </g>
</svg>
