<?xml version="1.0" encoding="UTF-8" standalone="no"?>
<!-- Created with Inkscape (http://www.inkscape.org/) -->

<svg
   xmlns:osb="http://www.openswatchbook.org/uri/2009/osb"
   xmlns:dc="http://purl.org/dc/elements/1.1/"
   xmlns:cc="http://creativecommons.org/ns#"
   xmlns:rdf="http://www.w3.org/1999/02/22-rdf-syntax-ns#"
   xmlns:svg="http://www.w3.org/2000/svg"
   xmlns="http://www.w3.org/2000/svg"
   xmlns:sodipodi="http://sodipodi.sourceforge.net/DTD/sodipodi-0.dtd"
   xmlns:inkscape="http://www.inkscape.org/namespaces/inkscape"
   width="210mm"
   height="297mm"
   viewBox="0 0 744.09448819 1052.3622047"
   id="svg2"
   version="1.1"
   inkscape:version="0.91 r13725"
   sodipodi:docname="personnages.svg">
  <defs
     id="defs4">
    <linearGradient
       id="linearGradient4808"
       osb:paint="gradient">
      <stop
         style="stop-color:#e54a3b;stop-opacity:1;"
         offset="0"
         id="stop4810" />
      <stop
         style="stop-color:#e54a3b;stop-opacity:0;"
         offset="1"
         id="stop4812" />
    </linearGradient>
  </defs>
  <sodipodi:namedview
     id="base"
     pagecolor="#ffffff"
     bordercolor="#666666"
     borderopacity="1.0"
     inkscape:pageopacity="0.0"
     inkscape:pageshadow="2"
     inkscape:zoom="0.7071068"
     inkscape:cx="382.77325"
     inkscape:cy="663.94323"
     inkscape:document-units="px"
     inkscape:current-layer="layer10"
     showgrid="false"
     inkscape:window-width="1315"
     inkscape:window-height="744"
     inkscape:window-x="51"
     inkscape:window-y="24"
     inkscape:window-maximized="1"
     showguides="true" />
  <metadata
     id="metadata7">
    <rdf:RDF>
      <cc:Work
         rdf:about="">
        <dc:format>image/svg+xml</dc:format>
        <dc:type
           rdf:resource="http://purl.org/dc/dcmitype/StillImage" />
        <dc:title></dc:title>
      </cc:Work>
    </rdf:RDF>
  </metadata>
  <g
     inkscape:label="Corps + bras"
     inkscape:groupmode="layer"
     id="layer1"
     style="display:none"
     sodipodi:insensitive="true">
    <path
       style="fill:none;fill-rule:evenodd;stroke:#000000;stroke-width:1px;stroke-linecap:butt;stroke-linejoin:miter;stroke-opacity:1"
       d="m 387.04429,442.41355 c 32.3065,10.19315 20.11828,13.21199 53.24017,-1.0358 1.78757,43.45761 14.87505,85.89026 31.37231,129.34787 -39.90814,15.71281 -62.45422,24.4754 -114.48377,-0.91585 12.32333,-36.92587 22.79013,-75.66769 28.5238,-112.48169 0.776,-4.98248 1.24722,-9.95481 1.34749,-14.91453 z"
       id="path3380"
       inkscape:connector-curvature="0"
       sodipodi:nodetypes="ccccsc" />
    <ellipse
       style="fill:#ffffff;fill-rule:evenodd;stroke:#000000;stroke-width:1px;stroke-linecap:butt;stroke-linejoin:miter;stroke-opacity:1"
       id="path3384"
       cx="413.49173"
       cy="415.68988"
       rx="36.736408"
       ry="37.841263" />
    <ellipse
       style="fill:#ffffff;stroke:#000000;stroke-opacity:1"
       id="path3390"
       cx="367.08786"
       cy="475.62823"
       rx="10.219903"
       ry="10.496117" />
    <ellipse
       style="fill:#ffffff;stroke:#000000;stroke-opacity:1"
       id="path3390-3"
       cx="458.51456"
       cy="485.57193"
       rx="10.219903"
       ry="10.496117" />
  </g>
  <g
     inkscape:groupmode="layer"
     id="layer5"
     inkscape:label="Suceptible outfit"
     sodipodi:insensitive="true"
     style="display:none;opacity:0.569">
    <ellipse
       style="fill:#ffffff;stroke:#00ff00;stroke-width:1.4724673;stroke-opacity:1"
       id="path4249"
       cx="395.68472"
       cy="415.12201"
       rx="10.125395"
       ry="10.125396" />
    <ellipse
       style="fill:#ffffff;stroke:#00ff00;stroke-width:1.4724673;stroke-opacity:1"
       id="path4249-7"
       cx="426.12198"
       cy="414.15063"
       rx="10.125395"
       ry="10.125396" />
    <path
       style="fill:none;fill-rule:evenodd;stroke:#00ff00;stroke-width:0.77410346px;stroke-linecap:butt;stroke-linejoin:miter;stroke-opacity:1"
       d="m 436.27115,413.88781 13.79159,-6.99575 c 1.15303,-0.75072 2.12029,0.18946 3.04031,1.55957"
       id="path4268"
       inkscape:connector-curvature="0"
       sodipodi:nodetypes="ccc" />
    <path
       style="fill:none;fill-rule:evenodd;stroke:#00f900;stroke-width:1.37303174px;stroke-linecap:butt;stroke-linejoin:miter;stroke-opacity:1"
       d="m 405.66812,416.15975 c 10.06572,-0.29457 10.06572,-0.29457 10.06572,-0.29457 z"
       id="path4270"
       inkscape:connector-curvature="0" />
    <path
       style="fill:none;fill-rule:evenodd;stroke:#00f900;stroke-width:1.04617333px;stroke-linecap:butt;stroke-linejoin:miter;stroke-opacity:1"
       d="m 377.21357,411.73266 9.01445,3.2169 z"
       id="path4270-5"
       inkscape:connector-curvature="0"
       sodipodi:nodetypes="ccc" />
  </g>
  <g
     inkscape:groupmode="layer"
     id="layer6"
     inkscape:label="Gaffeur bouche"
     sodipodi:insensitive="true"
     style="display:none">
    <path
       style="fill:none;fill-rule:evenodd;stroke:#000000;stroke-width:1px;stroke-linecap:butt;stroke-linejoin:miter;stroke-opacity:1"
       d="m 398.97025,431.42399 c 29.2933,-1.08839 27.61754,-4.47713 27.79507,-3.6307 -2.9335,3.96742 -3.02744,7.86009 -9.54564,10.72452 -7.87668,-0.70455 -13.40497,-3.35704 -18.24943,-7.09382 z"
       id="path4292"
       inkscape:connector-curvature="0"
       sodipodi:nodetypes="cccc" />
  </g>
  <g
     inkscape:groupmode="layer"
     id="layer7"
     inkscape:label="Gaffeur outfit"
     style="display:none"
     sodipodi:insensitive="true">
    <ellipse
       style="fill:#e54a3b;fill-opacity:1;stroke:#000000;stroke-width:1.16604888;stroke-opacity:1"
       id="path4314"
       cx="412.65305"
       cy="456.90387"
       rx="7.5220141"
       ry="7.1983957" />
    <path
       style="fill:#e54a3b;fill-opacity:1;fill-rule:evenodd;stroke:#000000;stroke-width:1px;stroke-linecap:butt;stroke-linejoin:miter;stroke-opacity:1"
       d="m 389.58684,442.44534 c -0.74366,6.22138 -5.20947,16.93664 -0.0589,24.84208 1.20497,-0.0402 2.37375,-0.45603 3.50176,-1.11363 4.07728,-2.37694 7.62186,-7.91274 10.41721,-10.28678 -3.76864,-4.46335 -7.52948,-10.68628 -13.86007,-13.44167 z"
       id="path4316"
       inkscape:connector-curvature="0"
       sodipodi:nodetypes="ccscc" />
    <path
       style="fill:#e54a3b;fill-opacity:1;fill-rule:evenodd;stroke:#000000;stroke-width:1px;stroke-linecap:butt;stroke-linejoin:miter;stroke-opacity:1"
       d="m 436.58924,441.13123 c -5.38426,3.70797 -12.51332,9.53008 -14.61359,15.32787 3.1445,4.57111 10.48739,11.06043 14.76728,12.79304 3.68485,-7.28981 1.90479,-21.73794 -0.15369,-28.12091 z"
       id="path4318"
       inkscape:connector-curvature="0"
       sodipodi:nodetypes="cccc" />
    <ellipse
       style="fill:#ffffff;fill-opacity:1;stroke:#0075d5;stroke-width:0.58078963;stroke-opacity:0"
       id="path4320"
       cx="427.51718"
       cy="455.45148"
       rx="0.8388958"
       ry="0.78168762" />
    <ellipse
       style="fill:#ffffff;fill-opacity:1;stroke:#0075d5;stroke-width:0.58078963;stroke-opacity:0"
       id="path4320-3"
       cx="428.60413"
       cy="450.30273"
       rx="0.8388958"
       ry="0.78168762" />
    <ellipse
       style="fill:#ffffff;fill-opacity:1;stroke:#0075d5;stroke-width:0.58078963;stroke-opacity:0"
       id="path4320-5"
       cx="434.32495"
       cy="451.56128"
       rx="0.8388958"
       ry="0.78168762" />
    <ellipse
       style="fill:#ffffff;fill-opacity:1;stroke:#0075d5;stroke-width:0.58078963;stroke-opacity:0"
       id="path4320-6"
       cx="431.57895"
       cy="452.59103"
       rx="0.8388958"
       ry="0.78168762" />
    <ellipse
       style="fill:#ffffff;fill-opacity:1;stroke:#0075d5;stroke-width:0.58078963;stroke-opacity:0"
       id="path4320-2"
       cx="432.03662"
       cy="448.70087"
       rx="0.8388958"
       ry="0.78168762" />
    <ellipse
       style="fill:#ffffff;fill-opacity:1;stroke:#0075d5;stroke-width:0.58078963;stroke-opacity:0"
       id="path4320-9"
       cx="431.69336"
       cy="458.42627"
       rx="0.8388958"
       ry="0.78168762" />
    <ellipse
       style="fill:#ffffff;fill-opacity:1;stroke:#0075d5;stroke-width:0.58078963;stroke-opacity:0"
       id="path4320-1"
       cx="433.75287"
       cy="455.79468"
       rx="0.8388958"
       ry="0.78168762" />
    <ellipse
       style="fill:#ffffff;fill-opacity:1;stroke:#0075d5;stroke-width:0.58078963;stroke-opacity:0"
       id="path4320-27"
       cx="433.75287"
       cy="460.7146"
       rx="0.8388958"
       ry="0.78168762" />
    <ellipse
       style="fill:#ffffff;fill-opacity:1;stroke:#0075d5;stroke-width:0.58078963;stroke-opacity:0"
       id="path4320-0"
       cx="428.71854"
       cy="458.19745"
       rx="0.8388958"
       ry="0.78168762" />
    <ellipse
       style="fill:#ffffff;fill-opacity:1;stroke:#0075d5;stroke-width:0.58078963;stroke-opacity:0"
       id="path4320-93"
       cx="424.48511"
       cy="456.13794"
       rx="0.8388958"
       ry="0.78168762" />
    <ellipse
       style="fill:#ffffff;fill-opacity:1;stroke:#0075d5;stroke-width:0.58078963;stroke-opacity:0"
       id="path4320-60"
       cx="433.98169"
       cy="445.49722"
       rx="0.8388958"
       ry="0.78168762" />
    <ellipse
       style="fill:#ffffff;fill-opacity:1;stroke:#0075d5;stroke-width:0.58078963;stroke-opacity:0"
       id="path4320-62"
       cx="435.46912"
       cy="448.58646"
       rx="0.8388958"
       ry="0.78168762" />
    <ellipse
       style="fill:#ffffff;fill-opacity:1;stroke:#0075d5;stroke-width:0.58078963;stroke-opacity:0"
       id="path4320-61"
       cx="408.23798"
       cy="454.19287"
       rx="0.8388958"
       ry="0.78168762" />
    <ellipse
       style="fill:#ffffff;fill-opacity:1;stroke:#0075d5;stroke-width:0.58078963;stroke-opacity:0"
       id="path4320-8"
       cx="408.69565"
       cy="456.82446"
       rx="0.8388958"
       ry="0.78168762" />
    <ellipse
       style="fill:#ffffff;fill-opacity:1;stroke:#0075d5;stroke-width:0.58078963;stroke-opacity:0"
       id="path4320-7"
       cx="411.78491"
       cy="452.47662"
       rx="0.8388958"
       ry="0.78168762" />
    <ellipse
       style="fill:#ffffff;fill-opacity:1;stroke:#0075d5;stroke-width:0.58078963;stroke-opacity:0"
       id="path4320-92"
       cx="412.70023"
       cy="456.71005"
       rx="0.8388958"
       ry="0.78168762" />
    <ellipse
       style="fill:#ffffff;fill-opacity:1;stroke:#0075d5;stroke-width:0.58078963;stroke-opacity:0"
       id="path4320-02"
       cx="415.56064"
       cy="457.16769"
       rx="0.8388958"
       ry="0.78168762" />
    <ellipse
       style="fill:#ffffff;fill-opacity:1;stroke:#0075d5;stroke-width:0.58078963;stroke-opacity:0"
       id="path4320-37"
       cx="415.10297"
       cy="460.82901"
       rx="0.8388958"
       ry="0.78168762" />
    <ellipse
       style="fill:#ffffff;fill-opacity:1;stroke:#0075d5;stroke-width:0.58078963;stroke-opacity:0"
       id="path4320-59"
       cx="409.38214"
       cy="460.02811"
       rx="0.8388958"
       ry="0.78168762" />
    <ellipse
       style="fill:#ffffff;fill-opacity:1;stroke:#0075d5;stroke-width:0.58078963;stroke-opacity:0"
       id="path4320-22"
       cx="415.9039"
       cy="452.9343"
       rx="0.8388958"
       ry="0.78168762" />
    <ellipse
       style="fill:#ffffff;fill-opacity:1;stroke:#0075d5;stroke-width:0.58078963;stroke-opacity:0"
       id="path4320-89"
       cx="418.07779"
       cy="456.93887"
       rx="0.8388958"
       ry="0.78168762" />
    <ellipse
       style="fill:#ffffff;fill-opacity:1;stroke:#0075d5;stroke-width:0.58078963;stroke-opacity:0"
       id="path4320-73"
       cx="412.0137"
       cy="462.31644"
       rx="0.8388958"
       ry="0.78168762" />
    <ellipse
       style="fill:#ffffff;fill-opacity:1;stroke:#0075d5;stroke-width:0.58078963;stroke-opacity:0"
       id="path4320-612"
       cx="391.41876"
       cy="446.06927"
       rx="0.8388958"
       ry="0.78168762" />
    <ellipse
       style="fill:#ffffff;fill-opacity:1;stroke:#0075d5;stroke-width:0.58078963;stroke-opacity:0"
       id="path4320-931"
       cx="392.10526"
       cy="449.04413"
       rx="0.8388958"
       ry="0.78168762" />
    <ellipse
       style="fill:#ffffff;fill-opacity:1;stroke:#0075d5;stroke-width:0.58078963;stroke-opacity:0"
       id="path4320-94"
       cx="393.47824"
       cy="452.13336"
       rx="0.8388958"
       ry="0.78168762" />
    <ellipse
       style="fill:#ffffff;fill-opacity:1;stroke:#0075d5;stroke-width:0.58078963;stroke-opacity:0"
       id="path4320-78"
       cx="397.71167"
       cy="454.30728"
       rx="0.8388958"
       ry="0.78168762" />
    <ellipse
       style="fill:#ffffff;fill-opacity:1;stroke:#0075d5;stroke-width:0.58078963;stroke-opacity:0"
       id="path4320-4"
       cx="394.27917"
       cy="458.4263"
       rx="0.8388958"
       ry="0.78168762" />
    <ellipse
       style="fill:#ffffff;fill-opacity:1;stroke:#0075d5;stroke-width:0.58078963;stroke-opacity:0"
       id="path4320-50"
       cx="399.88559"
       cy="456.48117"
       rx="0.8388958"
       ry="0.78168762" />
    <ellipse
       style="fill:#ffffff;fill-opacity:1;stroke:#0075d5;stroke-width:0.58078963;stroke-opacity:0"
       id="path4320-36"
       cx="396.22424"
       cy="450.18829"
       rx="0.8388958"
       ry="0.78168762" />
    <ellipse
       style="fill:#ffffff;fill-opacity:1;stroke:#0075d5;stroke-width:0.58078963;stroke-opacity:0"
       id="path4320-10"
       cx="390.38901"
       cy="451.90454"
       rx="0.8388958"
       ry="0.78168762" />
    <ellipse
       style="fill:#ffffff;fill-opacity:1;stroke:#0075d5;stroke-width:0.58078963;stroke-opacity:0"
       id="path4320-63"
       cx="390.84668"
       cy="455.79471"
       rx="0.8388958"
       ry="0.78168762" />
    <ellipse
       style="fill:#ffffff;fill-opacity:1;stroke:#0075d5;stroke-width:0.58078963;stroke-opacity:0"
       id="path4320-20"
       cx="396.5675"
       cy="456.93884"
       rx="0.8388958"
       ry="0.78168762" />
    <ellipse
       style="fill:#ffffff;fill-opacity:1;stroke:#0075d5;stroke-width:0.58078963;stroke-opacity:0"
       id="path4320-615"
       cx="394.27917"
       cy="455.45145"
       rx="0.8388958"
       ry="0.78168762" />
    <ellipse
       style="fill:#ffffff;fill-opacity:1;stroke:#0075d5;stroke-width:0.58078963;stroke-opacity:0"
       id="path4320-54"
       cx="391.99084"
       cy="460.60019"
       rx="0.8388958"
       ry="0.78168762" />
    <ellipse
       style="fill:#ffffff;fill-opacity:1;stroke:#0075d5;stroke-width:0.58078963;stroke-opacity:0"
       id="path4320-54-7"
       cx="394.85126"
       cy="462.20203"
       rx="0.8388958"
       ry="0.78168762" />
    <ellipse
       style="fill:#ffffff;fill-opacity:1;stroke:#0075d5;stroke-width:0.58078963;stroke-opacity:0"
       id="path4320-54-6"
       cx="391.18991"
       cy="463.91827"
       rx="0.8388958"
       ry="0.78168762" />
    <ellipse
       style="fill:#ffffff;fill-opacity:1;stroke:#0075d5;stroke-width:0.58078963;stroke-opacity:0"
       id="path4320-54-5"
       cx="389.01599"
       cy="459.68484"
       rx="0.8388958"
       ry="0.78168762" />
    <ellipse
       style="fill:#ffffff;fill-opacity:1;stroke:#0075d5;stroke-width:0.58078963;stroke-opacity:0"
       id="path4320-54-69"
       cx="430.89246"
       cy="462.6597"
       rx="0.8388958"
       ry="0.78168762" />
    <ellipse
       style="fill:#ffffff;fill-opacity:1;stroke:#0075d5;stroke-width:0.58078963;stroke-opacity:0"
       id="path4320-54-3"
       cx="435.12585"
       cy="465.74893"
       rx="0.8388958"
       ry="0.78168762" />
    <ellipse
       style="fill:#ffffff;fill-opacity:1;stroke:#0075d5;stroke-width:0.58078963;stroke-opacity:0"
       id="path4320-54-74"
       cx="435.92679"
       cy="462.31644"
       rx="0.8388958"
       ry="0.78168762" />
    <ellipse
       style="fill:#ffffff;fill-opacity:1;stroke:#0075d5;stroke-width:0.58078963;stroke-opacity:0"
       id="path4320-54-52"
       cx="436.49884"
       cy="457.2821"
       rx="0.8388958"
       ry="0.78168762" />
  </g>
  <g
     inkscape:groupmode="layer"
     id="layer8"
     inkscape:label="Bosseur bouche"
     sodipodi:insensitive="true"
     style="display:none">
    <path
       style="fill:none;fill-rule:evenodd;stroke:#000000;stroke-width:1.18890655px;stroke-linecap:butt;stroke-linejoin:miter;stroke-opacity:1"
       d="m 406.11516,437.38227 16.62898,-2.6406 c 1.49918,-0.95648 2.23652,-1.91296 1.68713,-2.86943"
       id="path4581"
       inkscape:connector-curvature="0"
       sodipodi:nodetypes="ccc" />
  </g>
  <g
     inkscape:groupmode="layer"
     id="layer10"
     inkscape:label="Manipulateur Bouche/sourcils"
     sodipodi:insensitive="true"
     style="display:none">
    <path
       style="fill:none;fill-rule:evenodd;stroke:#000000;stroke-width:1.45334089px;stroke-linecap:butt;stroke-linejoin:miter;stroke-opacity:1"
       d="m 400.68969,433.41356 c 6.36802,0.34184 14.54906,2.58105 19.60235,1.07747 -0.2328,1.27824 -0.47954,2.56075 -1.63077,4.12025 -3.19777,-0.097 -5.92431,0.4675 -9.60351,-0.30521 -3.41836,-1.2481 -6.02907,-3.54977 -8.74052,-5.26091"
       id="path4618"
       inkscape:connector-curvature="0"
       sodipodi:nodetypes="ccccc" />
    <path
       style="fill:none;fill-rule:evenodd;stroke:#000000;stroke-width:0.49454454px;stroke-linecap:butt;stroke-linejoin:miter;stroke-opacity:1"
       d="m 407.1708,435.93751 c 0.27681,0.0584 0.20632,0.0527 0.34131,0.085 0.035,0.008 0.0812,0.0179 0.11925,0.0264 0.0602,0.014 0.11513,0.0269 0.17584,0.0411 0.11766,0.0275 0.002,-0.001 0.17873,0.0401 0.0261,0.005 0.0323,0.009 0.0564,0.0147 0.0545,0.0133 0.12764,0.0293 0.17583,0.0411 0.034,0.009 0.0252,0.008 0.0529,0.0153 0.0388,0.009 0.26097,0.0609 0.29104,0.0688 0.0231,0.005 0.044,0.009 0.0595,0.0139 0.0453,0.0107 0.0646,0.0161 0.11228,0.0291 0.035,0.008 0.0812,0.0179 0.11909,0.0263 0.0426,0.009 0.0774,0.0185 0.11609,0.0272 0.0773,0.0185 0.1495,0.0361 0.23158,0.0555 0.1742,0.0407 -0.1145,-0.0296 0.17582,0.0411 0.023,0.005 0.0322,0.009 0.0565,0.0147 0.0258,0.007 0.21117,0.0476 0.23795,0.054 0.026,0.005 0.034,0.009 0.0562,0.0145 0.0223,0.008 0.12099,0.028 0.17584,0.0411 0.0488,0.012 0.0646,0.0161 0.11228,0.0292 0.11133,0.0263 0.0473,0.009 0.041,0.008 -0.002,-4.4e-4 0.0111,0.003 0.0747,0.0193"
       id="path4620"
       inkscape:connector-curvature="0"
       sodipodi:nodetypes="ccccccccccccccccccccsc" />
    <path
       style="fill:none;fill-rule:evenodd;stroke:#000000;stroke-width:1.25757635px;stroke-linecap:butt;stroke-linejoin:miter;stroke-opacity:1"
       d="m 395.02476,402.91474 c 0.89237,0.11714 0.66512,0.10571 1.1003,0.1705 0.11283,0.016 0.26176,0.0359 0.38443,0.053 0.19406,0.0281 0.37114,0.054 0.56686,0.0824 0.3793,0.0552 0.006,-0.002 0.57617,0.0804 0.0841,0.01 0.10413,0.0181 0.18182,0.0295 0.1757,0.0267 0.41148,0.0588 0.56683,0.0824 0.10961,0.0181 0.0812,0.0161 0.17054,0.0307 0.12508,0.0181 0.84129,0.12216 0.93823,0.138 0.0745,0.01 0.14184,0.0181 0.19181,0.0279 0.14604,0.0215 0.20826,0.0323 0.36196,0.0584 0.11283,0.016 0.26177,0.0359 0.38392,0.0528 0.13733,0.0181 0.24951,0.0371 0.37424,0.0546 0.24919,0.0371 0.48195,0.0724 0.74655,0.11132 0.56158,0.0816 -0.36912,-0.0594 0.5668,0.0824 0.0741,0.01 0.1038,0.0181 0.18214,0.0295 0.0832,0.014 0.68075,0.0955 0.76709,0.10832 0.0838,0.01 0.1096,0.018 0.18117,0.0291 0.0719,0.0161 0.39004,0.0562 0.56686,0.0824 0.15732,0.0241 0.20825,0.0323 0.36196,0.0586 0.3589,0.0528 0.15248,0.0181 0.13217,0.0161 -0.006,-8.8e-4 0.0358,0.006 0.24082,0.0387"
       id="path4620-4"
       inkscape:connector-curvature="0"
       sodipodi:nodetypes="ccccccccccccccccccccsc" />
    <path
       style="fill:none;fill-rule:evenodd;stroke:#000000;stroke-width:1.25757635px;stroke-linecap:butt;stroke-linejoin:miter;stroke-opacity:1"
       d="m 421.66746,403.4746 c 0.89586,-0.0865 0.67186,-0.0465 1.11046,-0.0812 0.11354,-0.01 0.26313,-0.0239 0.38651,-0.0348 0.19541,-0.0163 0.37378,-0.0308 0.57087,-0.0472 0.382,-0.0315 0.005,-0.003 0.57949,-0.0512 0.0842,-0.009 0.10554,-0.006 0.1838,-0.0121 0.17721,-0.0135 0.41417,-0.0352 0.57085,-0.0471 0.11087,-0.007 0.0827,-0.003 0.17307,-0.008 0.12595,-0.0105 0.84722,-0.0701 0.94524,-0.0765 0.0748,-0.007 0.14228,-0.0143 0.19317,-0.0159 0.14714,-0.0119 0.21019,-0.0154 0.36582,-0.0245 0.11354,-0.01 0.26314,-0.0239 0.38597,-0.0349 0.13788,-0.0132 0.25146,-0.02 0.37693,-0.0309 0.25115,-0.0199 0.48589,-0.0378 0.75246,-0.0594 0.56555,-0.0467 -0.37302,0.0251 0.57082,-0.0471 0.0745,-0.007 0.10521,-0.006 0.18411,-0.0122 0.0842,-0.005 0.68479,-0.06 0.7718,-0.0669 0.0839,-0.009 0.11084,-0.007 0.18308,-0.0124 0.0737,-4.8e-4 0.39269,-0.0329 0.57087,-0.0472 0.15871,-0.0119 0.21018,-0.0153 0.36587,-0.0243 0.36158,-0.0292 0.15264,-0.0166 0.1324,-0.014 -0.006,4.9e-4 0.0362,-0.002 0.24336,-0.0164"
       id="path4620-4-7"
       inkscape:connector-curvature="0"
       sodipodi:nodetypes="ccccccccccccccccccccsc" />
  </g>
  <g
     inkscape:groupmode="layer"
     id="layer11"
     inkscape:label="Manipulateur outfit"
     sodipodi:insensitive="true"
     style="display:none">
    <path
       style="fill:#000000;fill-opacity:1;fill-rule:evenodd;stroke:#000000;stroke-width:3.62536573px;stroke-linecap:butt;stroke-linejoin:miter;stroke-opacity:0.98122068"
       d="m 377.63222,402.49155 c -3.23286,-14.2467 -3.45415,-25.82821 5.06922,-34.52599 5.90203,-7.65678 20.57082,-12.1505 29.67004,-10.44569 15.98733,3.53225 21.91681,16.40977 25.49503,27.56918"
       id="path4653"
       inkscape:connector-curvature="0"
       sodipodi:nodetypes="cccc" />
    <path
       style="fill:#000000;fill-rule:evenodd;stroke:#000000;stroke-width:3.62536573px;stroke-linecap:butt;stroke-linejoin:miter;stroke-opacity:1"
       d="m 371.17967,402.23246 35.27637,-6.41854 37.16001,-13.00509"
       id="path4655"
       inkscape:connector-curvature="0"
       sodipodi:nodetypes="ccc" />
    <path
       style="fill:#000000;fill-opacity:1;stroke:#040000;stroke-width:0.293309;stroke-opacity:1"
       d="m 403.3385,392.56446 c -12.63664,3.39131 -23.35102,6.20461 -23.80965,6.252 l -0.83387,0.0861 -0.41701,-2.29344 c -0.72381,-3.98223 -1.01644,-9.55803 -0.67486,-12.86066 0.57535,-5.56252 2.2057,-9.30324 5.96354,-13.68309 3.91444,-4.5623 8.05678,-7.11384 14.80853,-9.12154 6.14998,-1.82783 10.69151,-2.12343 15.10108,-0.98002 9.89173,2.56494 16.66629,9.4232 21.20519,21.46715 l 0.87719,2.32792 -4.62231,1.31986 c -2.54185,0.72714 -14.96132,4.09462 -27.59807,7.48566 z"
       id="path4657"
       inkscape:connector-curvature="0" />
  </g>
  <g
     inkscape:groupmode="layer"
     id="layer9"
     inkscape:label="Bosseur outfit"
     sodipodi:insensitive="true"
     style="display:none">
    <path
       style="fill:#91dcff;fill-opacity:1;fill-rule:evenodd;stroke:#042978;stroke-width:2.30003786px;stroke-linecap:butt;stroke-linejoin:miter;stroke-opacity:1"
       d="m 415.85259,465.88334 c -5.55924,8.60872 -7.59781,29.2714 -7.55656,40.65534 l 7.18086,10.20564 7.17643,-9.88909 c -0.76579,-10.12117 0.62308,-32.09965 -6.80073,-40.97189 z"
       id="path4605"
       inkscape:connector-curvature="0"
       sodipodi:nodetypes="ccccc" />
    <path
       sodipodi:nodetypes="ccccc"
       inkscape:connector-curvature="0"
       id="path4609"
       d="m 417.26049,454.42909 c -9.7639,-0.35975 -8.17345,-1.54706 -10.33952,3.73197 1.11564,4.50919 3.34223,9.53698 9.14019,12.33466 5.64231,-3.3901 5.8443,-6.05185 8.6151,-11.5386 -3.48654,-5.87222 -0.57669,-5.61649 -7.41577,-4.52803 z"
       style="fill:#a4e7ff;fill-opacity:1;fill-rule:evenodd;stroke:#132c73;stroke-width:1.64622307px;stroke-linecap:butt;stroke-linejoin:miter;stroke-opacity:1" />
  </g>
  <g
     inkscape:groupmode="layer"
     id="layer3"
     inkscape:label="Yeux"
     sodipodi:insensitive="true"
     style="display:none">
    <ellipse
       style="fill:#000000;stroke:#000000;stroke-width:1.13287437;stroke-opacity:1"
       id="path4209"
       cx="396.36649"
       cy="414.86127"
       rx="3.3706126"
       ry="7.6675434" />
    <ellipse
       style="fill:#000000;stroke:#000000;stroke-width:1.13287437;stroke-opacity:1"
       id="path4209-6"
       cx="426.5882"
       cy="414.56537"
       rx="3.7138619"
       ry="7.6675434" />
  </g>
  <g
     inkscape:groupmode="layer"
     id="layer4"
     inkscape:label="Suceptible bouche"
     sodipodi:insensitive="true"
     style="display:none">
    <path
       style="fill:none;fill-rule:evenodd;stroke:#000000;stroke-width:2.36112905px;stroke-linecap:butt;stroke-linejoin:miter;stroke-opacity:1"
       d="m 403.05866,438.14938 c 6.83568,-1.08691 13.46578,-1.64208 19.94947,-1.33313 l -0.38365,0"
       id="path4289"
       inkscape:connector-curvature="0"
       sodipodi:nodetypes="ccc" />
  </g>
</svg>
